<?xml version="1.0" encoding="UTF-8" standalone="no"?>
<svg
   xmlns:dc="http://purl.org/dc/elements/1.1/"
   xmlns:cc="http://creativecommons.org/ns#"
   xmlns:rdf="http://www.w3.org/1999/02/22-rdf-syntax-ns#"
   xmlns:svg="http://www.w3.org/2000/svg"
   xmlns="http://www.w3.org/2000/svg"
   viewBox="0 0 1066.6667 1066.6667"
   height="1066.6667"
   width="1066.6667"
   xml:space="preserve"
   id="svg2"
   version="1.1"><metadata
     id="metadata8"><rdf:RDF><cc:Work
         rdf:about=""><dc:format>image/svg+xml</dc:format><dc:type
           rdf:resource="http://purl.org/dc/dcmitype/StillImage" /></cc:Work></rdf:RDF></metadata><defs
     id="defs6" /><g
     transform="matrix(1.3333333,0,0,-1.3333333,0,1066.6667)"
     id="g10"><g
       transform="scale(0.1)"
       id="g12"><path
         id="path14"
         style="fill:#f2521c;fill-opacity:1;fill-rule:nonzero;stroke:none"
         d="m 3714.34,6052.91 c 0.59,16.02 0.16,37.01 -3.03,60.9 v -93.63 l 3.03,32.73" /><path
         id="path16"
         style="fill:#f2521c;fill-opacity:1;fill-rule:nonzero;stroke:none"
         d="m 4072.89,4064.16 c 51.09,0 92.5,-41.43 92.5,-92.48 0,-51.07 -41.41,-92.48 -92.5,-92.48 -51.09,0 -92.48,41.41 -92.48,92.48 0,51.05 41.39,92.48 92.48,92.48 z m 232.46,-336.91 c 0,-49.03 -39.69,-88.79 -88.75,-88.79 -48.96,0 -88.73,39.76 -88.73,88.79 0,49.02 39.77,88.75 88.73,88.75 49.06,0 88.75,-39.73 88.75,-88.75 z m 241.06,1259.53 c 22.32,0 40.43,-18.11 40.43,-40.45 0,-22.35 -18.11,-40.45 -40.43,-40.45 -22.31,0 -40.43,18.1 -40.43,40.45 0,22.34 18.12,40.45 40.43,40.45 z M 4416.43,3846.15 c 32.81,0 59.47,-26.64 59.47,-59.47 0,-32.83 -26.66,-59.43 -59.47,-59.43 -32.82,0 -59.46,26.6 -59.46,59.43 0,32.83 26.64,59.47 59.46,59.47 z m -950.02,729.3 c -7.78,-16.04 -19.57,-29.96 -35.21,-40.82 -34.77,-24.12 -83.66,-29.9 -124.48,-14.61 -51.02,19.04 -75.92,10.02 -79.45,3.01 -1.74,-3.5 1.03,-10.04 8.69,-14.94 9.37,-6.02 19.61,-11.74 29.53,-17.25 42.01,-23.36 94.3,-52.46 94.3,-121.54 0,-79.96 -65.04,-145.04 -145,-145.04 -74.59,0 -134.1,57.6 -144.67,140.06 -3.3,25.54 -15.45,42.3 -34.28,47.05 -14.02,3.55 -29.08,-0.65 -35.82,-10.04 -8.74,-12.15 -4.28,-34.63 11.91,-60.39 7.19,-9.61 29.95,-44.01 29.95,-94.2 0,-79.96 -65.04,-145 -145,-145 -40.16,0 -76.55,16.4 -102.84,42.89 3.93,-13.99 7.75,-28.24 11.31,-42.89 97.92,-402.83 708.54,-311.29 873.46,-375.41 211.5,-82.27 417.58,-242.83 663.14,-113.58 245.57,129.24 394.42,-78.36 609.85,172.33 215.43,250.7 399.53,212.11 630.62,644.63 51.02,95.49 90.76,169.88 121.74,227.85 -212.89,-352.97 -683.22,-499.9 -939.88,-465.61 -54.85,-40.88 -56.99,-112.4 32.01,-151.27 52.99,-13.12 88.24,-16.01 88.24,-16.01 -7.05,-1.31 -13.96,-2.37 -20.9,-3.4 0.06,-0.02 0.08,-0.04 0.14,-0.04 -264.28,-82.38 -589.59,98.07 -586.97,330.47 103.65,36.87 205.76,155.66 228.4,183.16 v 0.02 0 c 3.02,3.64 4.66,5.74 4.66,5.74 0,0 1.92,-4.88 4.16,-12.57 84.05,-63.48 252.91,-144.05 252.91,-144.05 0,0 -0.09,-0.05 -0.11,-0.07 23.04,-9.34 45.72,-19.81 67.85,-31.68 2.75,-1.47 11.11,-5.92 25.62,0.89 14.85,7.04 28.5,22.17 36.19,39.01 -9.76,-5.18 -20.87,-8.15 -32.71,-8.15 -38.57,0 -69.84,31.29 -69.84,69.85 0,9.96 2.11,19.43 5.86,27.99 -0.96,-0.47 -2.33,-1.12 -3.25,-1.49 -86.64,-34.28 -133.02,1.64 -148.98,18.67 -29.96,31.98 -36.62,81.88 -16.62,124.18 22.36,47.21 70.51,73.17 128.79,69.18 23.61,-1.46 48.86,4.59 65.58,20.08 -5.64,-1.89 -11.68,-2.97 -17.93,-2.97 -31.13,0 -56.4,25.28 -56.4,56.43 0,27.26 19.37,50.04 45.11,55.25 -1.85,0.53 -3.77,1.04 -5.7,1.41 -19.96,3.83 -31.11,-5.63 -62.5,-42.78 -8.1,-9.6 -16.5,-19.53 -25.94,-29.37 -34.06,-35.53 -84.86,-41.11 -120.76,-13.38 -36.54,28.24 -55.88,90.45 -0.56,180.37 9.19,14.96 11.17,37.54 4.57,52.54 -4.11,9.41 -10.61,14.53 -21.1,16.58 -19.02,3.69 -69.47,13.67 -89.92,-90.13 -9.92,-50.55 -19.34,-87.35 -50.2,-100.14 -27.46,-11.45 -50.29,3.87 -68.65,16.13 -97.91,-30.6 0,-115.58 0,-115.58 h -0.04 c 67.91,-14.75 110.98,-27.93 110.98,-27.93 -150,-24.94 -589,-110.84 -589,-110.84 0,0 -25.87,-356.94 -33.19,-676.82 3.73,-19.16 6.1,-29.92 6.1,-29.92 -117.97,122.56 -168.66,299.28 -182.34,455.31 -79.44,68.99 -146.94,161.76 -201.43,268.83" /><path
         id="path18"
         style="fill:#f2521c;fill-opacity:1;fill-rule:nonzero;stroke:none"
         d="m 4764.38,4192.01 h -0.02 c 0,-0.02 -0.02,-0.04 -0.04,-0.04 l 0.06,0.04" /><path
         id="path20"
         style="fill:#f2521c;fill-opacity:1;fill-rule:nonzero;stroke:none"
         d="m 4723.07,5962.85 c -11.31,27.95 -22.44,47.83 -31.78,61.78 -58.85,-134.63 -193.24,-228.97 -349.34,-228.97 -13.86,0 -27.52,0.79 -41.01,2.23 l -8.23,-2.23 c -399.77,0 -420.66,452.41 -350.15,587.6 l 53.24,-47.24 0.01,-0.04 c 60.42,130.82 192.82,221.89 346.14,221.89 65.67,0 127.46,-16.7 181.45,-46.01 v 0 c 199.67,-90.73 291.31,-298.32 199.67,-549.01 z m 560.09,-678.18 c -107.32,-51.47 -151.19,105.39 -151.19,105.39 l -40.72,29.84 c 175.86,126.74 317.21,-95.29 191.91,-135.23 z M 3600.5,6009.12 c -11.48,18.67 -22.61,30.33 -31.91,37.72 -153.49,-234.05 -418.57,22.01 -333.8,211.85 -20.78,12.66 -40.68,18.93 -40.68,18.93 183.88,81.03 466.91,-76.19 406.39,-268.5 z M 3133.4,5685.7 c -32.83,0 -59.46,26.6 -59.46,59.44 0,32.85 26.63,59.47 59.46,59.47 32.83,0 59.46,-26.62 59.46,-59.47 0,-32.84 -26.63,-59.44 -59.46,-59.44 z m -59.46,-155.29 c -32.85,0 -59.45,26.62 -59.45,59.43 0,32.84 26.6,59.46 59.45,59.46 32.85,0 59.46,-26.62 59.46,-59.46 0,-32.81 -26.61,-59.43 -59.46,-59.43 z m 1432.04,1027.46 c 0,0 -63.38,82.6 -270.98,219.69 7.27,-104.26 -70.57,-180.16 -70.57,-180.16 0,0 -62.59,62.66 -278.02,148.83 66.59,-125.35 24.67,-270.27 24.67,-270.27 0,0 -91.27,7.87 -247.26,-35.24 77.64,-41.6 210.83,-215.45 47.49,-420.54 -56,193.36 -165.67,322.61 -416.37,371.15 -90.71,-12.01 -152.3,-48.89 -219.32,-162.11 -113.59,-191.95 -101.85,-146.54 -270.27,-235.84 -168.42,-89.28 -129.26,-289.04 -278.09,-453.54 -148.85,-164.51 17.48,-442.61 -22.6,-665.86 -34.02,-189.53 135.8,-323.55 247.82,-606.13 1.31,36.04 5.53,74.04 10.16,114.04 22.83,197.43 51.27,443.13 -246.68,738.73 -11.61,11.51 -14.2,28.77 -8.1,43.95 168.23,418.4 433.29,657.6 661.75,725.12 h 0.02 c 0,0 0,0 -0.01,0 3.54,1.03 7.1,2.18 10.61,3.14 0,0 -7.14,-4.76 -19.86,-13.94 -253.3,-295.51 -420.14,-441.74 -513.01,-728.09 117.23,-122.46 242.85,-321.19 242.85,-652.79 -1.03,-56.9 -52.57,-216.51 -2.12,-317.29 2.87,-0.37 5.8,-0.64 8.79,-0.64 11.89,0 23.02,3.16 32.68,8.61 -0.91,-0.04 -1.83,-0.14 -2.74,-0.14 -29.38,0 -53.19,23.81 -53.19,53.19 0,29.37 23.81,53.16 53.19,53.16 9.51,0 18.41,-2.52 26.15,-6.89 -1.92,3.45 -3.4,5.54 -3.44,5.6 -0.98,1.18 -1.86,2.41 -2.69,3.69 -50.31,78.38 -24.03,130.88 -10.39,149.81 25.62,35.53 73.32,51.64 118.65,40.21 32.83,-8.34 58.89,-29.1 75.23,-58.45 v 0 c 0.02,-0.04 0.03,-0.04 0.04,-0.08 5.92,-10.67 10.57,-22.44 13.77,-35.2 16.43,-32.5 38,-48.96 60.88,-52.93 -19.73,7.76 -33.71,26.94 -33.71,49.46 0,20.9 12.1,38.92 29.64,47.61 -2.44,1.51 -4.86,2.86 -7.32,4.44 -41.4,26.56 -56.72,75.31 -36.42,115.9 20.67,41.3 78.02,72.28 176.91,35.33 8.01,-2.99 17.46,-3.91 26.6,-3.03 -28.38,1.47 -50.97,24.86 -50.97,53.61 0,19.61 10.51,36.68 26.17,46.1 -11.91,2.34 -26.06,3.71 -42.91,3.71 -51.55,0 -89.46,2.15 -107.99,29.98 -16.48,24.73 -5.89,50.08 2.63,70.45 3.05,7.3 6.24,15.06 8.98,23.51 -7.98,-4.53 -17.18,-7.14 -27,-7.14 -30.29,0 -54.84,24.55 -54.84,54.88 0,16.85 7.63,31.95 19.62,42.01 -18.26,-6.82 -31.87,-23.71 -33.44,-44.08 -1.17,-15.18 -11.02,-28.32 -25.27,-33.69 -9.72,-3.67 -20.9,-3.73 -30.04,0.31 v 0 c -97.2,12.46 -216.81,284.82 -96.25,543.34 60.92,-76.33 287.82,174.3 287.82,174.3 0,0 -2.37,-7 -6.93,-19.44 -31.45,-218.32 -199.07,-505.41 -199.07,-505.41 l 21.56,-80.45 c 23.94,28.58 59.79,46.76 99.32,46.76 71.52,0 129.73,-58.18 129.73,-129.71 0,-37.32 -9.97,-66.05 -18.3,-86.64 7.34,-0.39 16.93,-0.64 29.47,-0.64 38.3,0 71.35,-6.29 98.58,-17.93 -100.79,296.41 -118.13,649.65 -36.13,912.34 344.25,-350.9 644.54,-528.79 1040.15,-562.77 223.37,79.92 399.51,-106.48 599.25,-106.48 59.07,0 106.43,18.41 134.94,33.1 -161.85,16.25 -311.01,60.98 -444.47,121.33 0,-0.06 0.06,-0.24 0.06,-0.24 l -0.45,0.41 c -297.3,134.61 -515.98,346.94 -620.74,496.47 v 0 l -0.02,0.02 c -33.13,47.3 -55,88.38 -64.18,118.63 224.57,-135.78 356.82,-290.49 466.91,-237.93 0,0 0,0 0.02,0 31.61,56.88 80.55,96 133.01,114.51 43.13,15.2 85.82,16.16 123.13,4.77 v 0 0 c 39.68,-12.09 73.26,-38.18 94.55,-76.45 28.61,-51.56 25.6,-103.45 10.6,-151.36 0.71,-1.96 82.89,-225.55 272.37,-302.27 45.27,-5.43 91.19,-8.38 137.75,-8.38 208.2,259.44 143.61,387.01 -51.13,427.33 -42.7,1.31 -159.91,-73.83 -159.91,-73.83 0,0 18.01,113.96 87.64,163.16 -412.52,426.6 -181.33,756.7 -477.79,1064.83 -34.71,-69.1 -131.17,-133.52 -131.17,-133.52" /><path
         id="path22"
         style="fill:#f2521c;fill-opacity:1;fill-rule:nonzero;stroke:none"
         d="m 3281.46,4369.3 c 0,6.32 -1.14,11.58 -4.01,16.54 -0.87,-10.98 -5.05,-21 -11.55,-29.06 5.33,3.65 10.53,7.83 15.56,12.52" /><path
         id="path24"
         style="fill:#351914;fill-opacity:1;fill-rule:nonzero;stroke:none"
         d="m 4127.87,3727.25 c 0,-49.03 39.77,-88.79 88.73,-88.79 49.06,0 88.75,39.76 88.75,88.79 0,49.02 -39.69,88.75 -88.75,88.75 -48.96,0 -88.73,-39.73 -88.73,-88.75" /><path
         id="path26"
         style="fill:#351914;fill-opacity:1;fill-rule:nonzero;stroke:none"
         d="m 4416.43,3727.25 c 32.81,0 59.47,26.6 59.47,59.43 0,32.83 -26.66,59.47 -59.47,59.47 -32.82,0 -59.46,-26.64 -59.46,-59.47 0,-32.83 26.64,-59.43 59.46,-59.43" /><path
         id="path28"
         style="fill:#351914;fill-opacity:1;fill-rule:nonzero;stroke:none"
         d="m 4072.89,3879.2 c 51.09,0 92.5,41.41 92.5,92.48 0,51.05 -41.41,92.48 -92.5,92.48 -51.09,0 -92.48,-41.43 -92.48,-92.48 0,-51.07 41.39,-92.48 92.48,-92.48" /><path
         id="path30"
         style="fill:#351914;fill-opacity:1;fill-rule:nonzero;stroke:none"
         d="m 3133.4,5804.61 c -32.83,0 -59.46,-26.62 -59.46,-59.47 0,-32.84 26.63,-59.44 59.46,-59.44 32.83,0 59.46,26.6 59.46,59.44 0,32.85 -26.63,59.47 -59.46,59.47" /><path
         id="path32"
         style="fill:#351914;fill-opacity:1;fill-rule:nonzero;stroke:none"
         d="m 3073.94,5649.3 c -32.85,0 -59.45,-26.62 -59.45,-59.46 0,-32.81 26.6,-59.43 59.45,-59.43 32.85,0 59.46,26.62 59.46,59.43 0,32.84 -26.61,59.46 -59.46,59.46" /><path
         id="path34"
         style="fill:#ffffff;fill-opacity:1;fill-rule:nonzero;stroke:none"
         d="m 4236.8,5893.2 c -46.41,56.68 -56.6,177.89 -21.57,309.18 21.78,-15.92 48.34,-25.64 77.35,-25.64 72.62,0 131.42,58.87 131.42,131.46 0,58.11 -37.96,106.86 -90.27,124.18 17.19,18.4 34.98,33.03 52.73,43.5 -14.55,2.17 -29.33,3.65 -44.51,3.65 -166.95,0 -302.81,-135.82 -302.81,-302.79 0,-129.9 82.46,-240.67 197.66,-283.54" /><path
         id="path36"
         style="fill:#ffffff;fill-opacity:1;fill-rule:nonzero;stroke:none"
         d="m 4540.74,6404.55 c 21.6,-68.65 18.99,-169 -12.63,-274.04 -37.31,-123.87 -104.65,-220.04 -171.06,-255.74 159.94,7.94 287.68,140.15 287.68,301.97 0,90.86 -40.41,172.26 -103.99,227.81" /><path
         id="path38"
         style="fill:#f78f7e;fill-opacity:1;fill-rule:nonzero;stroke:none"
         d="m 4723.07,5648.36 v 0 0 z" /><path
         id="path40"
         style="fill:#f78f7e;fill-opacity:1;fill-rule:nonzero;stroke:none"
         d="m 4708.54,5349.79 c 34.7,61.66 59.43,111.21 50.8,156.03 -17.25,-4.73 -37.8,-6.31 -56.92,2.68 -44.39,20.89 -73.1,31.34 -179.02,-44.5 -6.25,-16.85 -10.63,-35.52 -12.64,-55.86 30.65,-18.41 49.32,-6.58 58.28,3.25 2.11,3.18 4.24,6.21 6.41,8.98 0.08,0.16 0.14,0.25 0.14,0.25 0,0 0.04,-0.01 0.04,-0.03 21.36,27.34 45.85,37.96 45.85,37.96 0,0 -3.53,-35.27 -4.68,-77.38 22.77,-19.45 52.18,-40.84 80.86,-50.94 3.61,6.63 7.28,13.19 10.88,19.56" /><path
         id="path42"
         style="fill:#ee431e;fill-opacity:1;fill-rule:nonzero;stroke:none"
         d="m 4064.2,5648.36 c 0,0 0,0.02 -0.02,0.02 l 0.02,-0.02 v 0" /><path
         id="path44"
         style="fill:#ee431e;fill-opacity:1;fill-rule:nonzero;stroke:none"
         d="m 4000,5767.01 c 118.4,-128.61 264.16,-264.14 431,-378.57 0.78,54.74 14.35,101.81 35.93,140.64 -0.02,0 -0.02,0 -0.02,0 -110.09,-52.56 -242.34,102.15 -466.91,237.93" /><path
         id="path46"
         style="fill:#ee431e;fill-opacity:1;fill-rule:nonzero;stroke:none"
         d="m 4828.22,5420.55 c -12.56,-40.06 -33.47,-77.33 -51.44,-109.2 -14.22,-25.3 -40.1,-93.13 -40.1,-93.13 115.18,-49.31 236.95,-84.7 363.91,-99.94 -189.48,76.72 -271.66,300.31 -272.37,302.27" /><path
         id="path48"
         style="fill:#ee431e;fill-opacity:1;fill-rule:nonzero;stroke:none"
         d="m 4395.61,5103.77 c -395.61,33.98 -695.9,211.87 -1040.15,562.77 314.75,-507.34 726.79,-590.86 1090.11,-646.66 33.12,38.34 79.16,54.28 133.61,43.54 35.74,-7.03 63.34,-29.05 77.79,-62.03 2.27,-5.16 4.08,-10.53 5.63,-15.98 94.08,-17.09 182.09,-38.26 260.7,-72.32 99.34,35.27 172.75,80.43 220.7,115.89 -4.76,0.41 -9.49,0.94 -14.2,1.41 -28.51,-14.69 -75.87,-33.1 -134.94,-33.1 -199.74,0 -375.88,186.4 -599.25,106.48" /><path
         id="path50"
         style="fill:#ee431e;fill-opacity:1;fill-rule:nonzero;stroke:none"
         d="m 3711.31,6020.18 v 93.63 c -11.1,82.89 -56.11,200.74 -213.2,267.23 l -38.06,16.11 c -65.52,-0.04 -119.09,0.25 -165.11,-5.82 250.7,-48.54 360.37,-177.79 416.37,-371.15" /><path
         id="path52"
         style="fill:#ee431e;fill-opacity:1;fill-rule:nonzero;stroke:none"
         d="m 4523.4,6511.86 c 118.83,-64.61 199.67,-190.59 199.67,-335.12 0,-54.04 -11.39,-105.49 -31.78,-152.11 9.34,-13.95 20.47,-33.83 31.78,-61.78 91.64,250.69 0,458.28 -199.67,549.01 v 0" /><path
         id="path54"
         style="fill:#b65e56;fill-opacity:1;fill-rule:nonzero;stroke:none"
         d="m 4575.45,5420.37 c 0.06,0.1 0.12,0.16 0.18,0.22 0,0.02 -0.04,0.03 -0.04,0.03 0,0 -0.06,-0.09 -0.14,-0.25" /><path
         id="path56"
         style="fill:#b65e56;fill-opacity:1;fill-rule:nonzero;stroke:none"
         d="m 4616.8,5381.17 c -1.06,-37.63 -0.22,-80.72 6.72,-108.96 13.88,-7.27 27.83,-14.36 41.91,-21.21 4.82,26.17 18.18,53.51 32.23,79.23 -28.68,10.1 -58.09,31.49 -80.86,50.94" /><path
         id="path58"
         style="fill:#b65e56;fill-opacity:1;fill-rule:nonzero;stroke:none"
         d="m 4510.76,5408.14 c -2.24,-22.42 -1.78,-46.73 2.37,-73.12 10.35,-6.37 20.82,-12.6 31.32,-18.81 -1.58,42.23 9.98,73.09 24.59,95.18 -8.96,-9.83 -27.63,-21.66 -58.28,-3.25" /><path
         id="path60"
         style="fill:#ee431e;fill-opacity:1;fill-rule:nonzero;stroke:none"
         d="m 2890.21,4498.01 c 0,331.6 -125.62,530.33 -242.85,652.79 92.87,286.35 259.71,432.58 513.01,728.09 -83.04,-59.91 -405.27,-309.91 -552.03,-679.16 -6.15,-15.49 -12.55,-29.63 -18.2,-42.72 304.68,-314.26 273.33,-585.17 250.32,-784.12 -5.28,-45.53 -10.25,-88.57 -10.25,-126.15 0,-33.75 25.27,-61.68 57.88,-66.02 -50.45,100.78 1.09,260.39 2.12,317.29" /><path
         id="path62"
         style="fill:#ee431e;fill-opacity:1;fill-rule:nonzero;stroke:none"
         d="m 3169.61,5889.69 c 0,0 0,0 0.01,0 0.01,0 0.01,0 0.01,0 h -0.02" /><path
         id="path64"
         style="fill:#ee431e;fill-opacity:1;fill-rule:nonzero;stroke:none"
         d="m 2949.41,5373.36 c 0,0 6.92,-91.6 23.83,-192.07 123.26,136.82 263.99,366.37 263.99,366.37 0,0 -226.9,-250.63 -287.82,-174.3" /><path
         id="path66"
         style="fill:#ee431e;fill-opacity:1;fill-rule:nonzero;stroke:none"
         d="m 4355.33,4812.4 c -15.99,10.71 -34.16,22.85 -60.92,28.11 -27.83,5.53 -67.65,-13.17 -73.1,-40.98 -4.36,-22.03 9.53,-65.58 29.39,-82.95 38.79,-6.21 74.18,-13.12 104.59,-19.76 h 0.04 c 0,0 -97.91,84.98 0,115.58" /><path
         id="path68"
         style="fill:#ee431e;fill-opacity:1;fill-rule:nonzero;stroke:none"
         d="m 3850.18,3851.31 c 0,0 -102.25,135.27 -131.12,415.37 -17.6,12.21 -34.67,25.59 -51.22,39.94 13.68,-156.03 64.37,-332.75 182.34,-455.31" /><path
         id="path70"
         style="fill:#ee431e;fill-opacity:1;fill-rule:nonzero;stroke:none"
         d="m 4764.28,4191.95 h -0.02 l 0.06,0.02 c 0.02,0 0.04,0.02 0.04,0.04 -32.04,-2.26 -64.26,-3.49 -96.61,-3.49 -54.16,0 -115.8,1.44 -172.83,7.12 101.33,-92.01 221.53,-135.15 301.37,-154.96 -89,38.87 -86.86,110.39 -32.01,151.27" /><path
         id="path72"
         style="fill:#ee431e;fill-opacity:1;fill-rule:nonzero;stroke:none"
         d="m 4600.49,4429.71 0.41,-0.28 c -0.14,-0.19 -0.27,-0.37 -0.41,-0.56 z m -86.47,98.34 c -2.24,7.69 -4.16,12.57 -4.16,12.57 0,0 -1.64,-2.1 -4.66,-5.74 v 0 -0.02 c -22.64,-27.5 -124.75,-146.29 -228.4,-183.16 -2.62,-232.4 322.69,-412.85 586.97,-330.47 -0.06,0 -0.08,0.02 -0.14,0.04 -28.98,-4.36 -56.81,-6.47 -83.42,-6.47 -290.33,0 -437.53,237.86 -439.16,240.53 -5.58,9.26 -7.1,20.45 -4.16,30.84 2.91,10.39 10.04,19.16 19.65,24.14 0.9,0.51 86.57,46.04 153.32,127.52 l 36.23,-3.59 c 16.66,-1.1 33.19,-2.74 49.57,-4.92 l 4.81,-0.49 c -0.02,-0.04 -0.06,-0.08 -0.1,-0.14 57.48,-8.08 113.11,-23.1 166.45,-44.76 0.02,0.02 0.11,0.07 0.11,0.07 0,0 -168.86,80.57 -252.91,144.05" /><path
         id="path74"
         style="fill:#ee431e;fill-opacity:1;fill-rule:nonzero;stroke:none"
         d="m 3224.49,4336.93 c -6.88,0 -13.44,1.35 -19.47,3.73 -22.88,3.97 -44.45,20.43 -60.88,52.93 1.56,-6.21 2.81,-12.65 3.67,-19.31 4.58,-35.69 27.05,-71.68 66.98,-71.68 36.77,0 66.67,29.92 66.67,66.7 -5.03,-4.69 -10.23,-8.87 -15.56,-12.52 -9.75,-12.09 -24.66,-19.85 -41.41,-19.85" /><path
         id="path76"
         style="fill:#ee431e;fill-opacity:1;fill-rule:nonzero;stroke:none"
         d="m 3130.33,4428.87 c 0,-0.04 0.02,-0.04 0.04,-0.08 -0.01,0.04 -0.02,0.04 -0.04,0.08 v 0" /><path
         id="path78"
         style="fill:#ee431e;fill-opacity:1;fill-rule:nonzero;stroke:none"
         d="m 3230.3,5528.22 c -24.6,-66.99 -113.13,-292.01 -240.44,-431.52 15.38,-66.76 35.73,-127.01 62.02,-155.33 0.29,0.33 0.62,0.66 0.91,0.99 l -21.56,80.45 c 0,0 167.62,287.09 199.07,505.41" /><path
         id="path80"
         style="fill:#f46f26;fill-opacity:1;fill-rule:nonzero;stroke:none"
         d="m 3391.59,4754.2 c 54.69,-23.42 85.5,-68.89 85.5,-131.27 0,-17.15 -3.75,-33.14 -10.68,-47.48 54.49,-107.07 121.99,-199.84 201.43,-268.83 16.55,-14.35 33.62,-27.73 51.22,-39.94 -10.52,102.15 -11.36,223.38 6.19,364.59 -167.65,207.75 -268.37,471.66 -268.37,758.79 0,0 -29.48,72.21 -55.42,140.98 -0.75,1.97 -1.25,3.51 -1.89,5.29 -16.8,40.54 -31.73,83.65 -44.11,130.21 -82,-262.69 -64.66,-615.93 36.13,-912.34" /><path
         id="path82"
         style="fill:#f46f26;fill-opacity:1;fill-rule:nonzero;stroke:none"
         d="m 3272.76,6223.2 c -8.89,14.98 -23.64,26.74 -37.97,35.49 -84.77,-189.84 180.31,-445.9 333.8,-211.85 -14.16,11.23 -24,12.36 -24,12.36 -133.51,-165 -333.51,14.39 -271.83,164" /><path
         id="path84"
         style="fill:#f46f26;fill-opacity:1;fill-rule:nonzero;stroke:none"
         d="m 3960.83,6176.74 c 0,56.83 12.59,110.74 34.98,159.24 l -0.01,0.04 -53.24,47.24 c -70.51,-135.19 -49.62,-587.6 350.15,-587.6 l 8.23,2.23 c -190.92,20.53 -340.11,182.6 -340.11,378.85" /><path
         id="path86"
         style="fill:#f46f26;fill-opacity:1;fill-rule:nonzero;stroke:none"
         d="m 4466.27,4668.89 c 0,0 -458.54,20.11 -649.06,-45.3 -62.25,-244.59 5.39,-632.48 26.87,-742.36 7.32,319.88 33.19,676.82 33.19,676.82 0,0 439,85.9 589,110.84" /><path
         id="path88"
         style="fill:#f46f26;fill-opacity:1;fill-rule:nonzero;stroke:none"
         d="m 4764.26,4191.95 h 0.02 c 256.66,-34.29 726.99,112.64 939.88,465.61 10.9,18.05 21.31,36.48 30.78,55.6 -0.04,0.02 -0.06,0.02 -0.1,0.04 -197.3,-291.23 -568.53,-493 -970.46,-521.19 l -0.06,-0.04 -0.06,-0.02" /><path
         id="path90"
         style="fill:#f46f26;fill-opacity:1;fill-rule:nonzero;stroke:none"
         d="m 4863.77,4384 c 11.84,0 22.95,2.97 32.71,8.15 2.48,5.41 4.38,11.01 5.47,16.58 3.42,17.48 -0.15,35.23 -10.07,50.02 -9.93,14.79 -25.02,24.8 -42.49,28.26 -27.81,5.45 -48.41,-4.59 -49.25,-5.02 -0.1,-0.04 -0.24,-0.1 -0.35,-0.15 -3.75,-8.56 -5.86,-18.03 -5.86,-27.99 0,-38.56 31.27,-69.85 69.84,-69.85" /><path
         id="path92"
         style="fill:#f46f26;fill-opacity:1;fill-rule:nonzero;stroke:none"
         d="m 3114.79,4865.47 c 0,-30.33 24.55,-54.88 54.84,-54.88 9.82,0 19.02,2.61 27,7.14 3.91,12.07 6.86,25.63 6.86,41.68 0,28.32 -23.06,51.37 -51.38,51.37 -6.21,0 -12.15,-1.23 -17.7,-3.3 -11.99,-10.06 -19.62,-25.16 -19.62,-42.01" /><path
         id="path94"
         style="fill:#f46f26;fill-opacity:1;fill-rule:nonzero;stroke:none"
         d="m 4546.41,4905.88 c 22.32,0 40.43,18.1 40.43,40.45 0,22.34 -18.11,40.45 -40.43,40.45 -22.31,0 -40.43,-18.11 -40.43,-40.45 0,-22.35 18.12,-40.45 40.43,-40.45" /><path
         id="path96"
         style="fill:#f46f26;fill-opacity:1;fill-rule:nonzero;stroke:none"
         d="m 4750.98,4765.92 c 0,-31.15 25.27,-56.43 56.4,-56.43 6.25,0 12.29,1.08 17.93,2.97 8.64,8.03 15.04,18.5 17.66,31.86 3.44,17.46 -0.14,35.23 -10.08,50.04 -8.83,13.12 -21.76,22.46 -36.8,26.81 -25.74,-5.21 -45.11,-27.99 -45.11,-55.25" /><path
         id="path98"
         style="fill:#f46f26;fill-opacity:1;fill-rule:nonzero;stroke:none"
         d="m 3309.75,4643.98 c 0,-28.75 22.59,-52.14 50.97,-53.61 9.63,0.92 18.93,3.87 25.82,8.65 8.46,5.84 12.21,13.23 12.21,23.91 0,14.73 -0.02,54.77 -62.83,67.15 -15.66,-9.42 -26.17,-26.49 -26.17,-46.1" /><path
         id="path100"
         style="fill:#f46f26;fill-opacity:1;fill-rule:nonzero;stroke:none"
         d="m 3171.31,4390.12 c 0,-22.52 13.98,-41.7 33.71,-49.46 6.03,-2.38 12.59,-3.73 19.47,-3.73 16.75,0 31.66,7.76 41.41,19.85 6.5,8.06 10.68,18.08 11.55,29.06 -6.28,10.84 -20.85,20.33 -50.05,36.56 -8.62,4.81 -17.51,9.87 -26.45,15.33 -17.54,-8.69 -29.64,-26.71 -29.64,-47.61" /><path
         id="path102"
         style="fill:#f46f26;fill-opacity:1;fill-rule:nonzero;stroke:none"
         d="m 2873.63,4241.74 c 0,-29.38 23.81,-53.19 53.19,-53.19 0.91,0 1.83,0.1 2.74,0.14 20.26,11.47 33.99,33.17 33.99,58.05 0,19.18 -6.42,33.77 -10.58,41.27 -7.74,4.37 -16.64,6.89 -26.15,6.89 -29.38,0 -53.19,-23.79 -53.19,-53.16" /><path
         id="path104"
         style="fill:#f46f26;fill-opacity:1;fill-rule:nonzero;stroke:none"
         d="m 3045.66,4830.02 v 0 c -4.27,1.89 -8.16,4.61 -11.17,8.4 -166.47,209.49 -85.08,534.94 -85.08,534.94 -120.56,-258.52 -0.95,-530.88 96.25,-543.34" /><path
         id="path106"
         style="fill:#f46f26;fill-opacity:1;fill-rule:nonzero;stroke:none"
         d="m 5283.16,5284.67 c -75.33,-24.05 -143.53,64.06 -101.05,118.55 -25.43,21.02 -90.86,16.68 -90.86,16.68 l 40.72,-29.84 c 0,0 43.87,-156.86 151.19,-105.39" /><path
         id="path108"
         style="fill:#f46f26;fill-opacity:1;fill-rule:nonzero;stroke:none"
         d="m 5474.14,5517.32 c -0.1,0.12 -0.23,0.26 -0.35,0.39 0.21,-0.33 0.41,-0.64 0.6,-0.97 -0.09,0.17 -0.15,0.41 -0.25,0.58" /><path
         id="path110"
         style="fill:#f46f26;fill-opacity:1;fill-rule:nonzero;stroke:none"
         d="m 5238.34,5109.9 c 289.53,210.24 213.14,476.7 -77.95,462.97 -53.67,-22.32 -133.09,-109.47 -133.09,-109.47 0,0 117.21,75.14 159.91,73.83 194.74,-40.32 259.33,-167.89 51.13,-427.33" /><path
         id="path112"
         style="fill:#f46f26;fill-opacity:1;fill-rule:nonzero;stroke:none"
         d="m 4082.11,6810.88 v 0 0 z" /><path
         id="path114"
         style="fill:#f46f26;fill-opacity:1;fill-rule:nonzero;stroke:none"
         d="m 3792.21,6858.87 c 88.84,-190.47 73.64,-286.92 71.34,-298.4 l -6.13,-30.7 -31.33,-0.77 c -1.38,-0.04 -135.55,-5.25 -246.06,-100.76 265.81,-147.42 131.28,-408.06 131.28,-408.06 163.34,205.09 30.15,378.94 -47.49,420.54 155.99,43.11 247.26,35.24 247.26,35.24 0,0 41.92,144.92 -24.67,270.27 215.43,-86.17 278.02,-148.83 278.02,-148.83 0,0 77.84,75.9 70.57,180.16 207.6,-137.09 270.98,-219.69 270.98,-219.69 0,0 96.46,64.42 131.17,133.52 296.46,-308.13 65.27,-638.23 477.79,-1064.83 23.38,4.14 45.57,6.64 66.97,8.15 -240.45,249.7 -281.15,471.99 -317.22,670.25 -35.02,192.46 -63.26,347.7 -277.11,479.36 -7.37,-74.44 -42.19,-121.94 -44.12,-124.5 l -28.99,-38.73 -31.83,36.43 c -1.23,1.37 -115.57,129.37 -319.89,210.37 26.55,-102.6 14.61,-147.05 11.39,-156.21 l -18.32,-51.84 -43.03,34.26 c -1.66,1.35 -147.93,116.66 -320.58,164.77" /><path
         id="path116"
         style="fill:#f46f26;fill-opacity:1;fill-rule:nonzero;stroke:none"
         d="m 3714.34,6052.91 -3.03,-32.73 c 0,0 2.28,12.36 3.03,32.73" /><path
         id="path118"
         style="fill:#f8a7a6;fill-opacity:1;fill-rule:nonzero;stroke:none"
         d="m 4702.42,5508.5 c 19.12,-8.99 39.67,-7.41 56.92,-2.68 -1.84,9.53 -5.12,18.87 -10.22,28.07 -27.19,48.92 -83.3,49.86 -123.12,35.84 -42.99,-15.18 -82.45,-51.37 -102.6,-105.73 105.92,75.84 134.63,65.39 179.02,44.5" /><path
         id="path120"
         style="fill:#351914;fill-opacity:1;fill-rule:nonzero;stroke:none"
         d="m 4357.05,5874.77 c 66.41,35.7 133.75,131.87 171.06,255.74 31.62,105.04 34.23,205.39 12.63,274.04 63.58,-55.55 103.99,-136.95 103.99,-227.81 0,-161.82 -127.74,-294.03 -287.68,-301.97 z m -15.1,604.76 c 15.18,0 29.96,-1.48 44.51,-3.65 -17.75,-10.47 -35.54,-25.1 -52.73,-43.5 52.31,-17.32 90.27,-66.07 90.27,-124.18 0,-72.59 -58.8,-131.46 -131.42,-131.46 -29.01,0 -55.57,9.72 -77.35,25.64 -35.03,-131.29 -24.84,-252.5 21.57,-309.18 -115.2,42.87 -197.66,153.64 -197.66,283.54 0,166.97 135.86,302.79 302.81,302.79 z m 181.45,32.33 c -53.99,29.31 -115.78,46.01 -181.45,46.01 -153.32,0 -285.72,-91.07 -346.14,-221.89 -22.39,-48.5 -34.98,-102.41 -34.98,-159.24 0,-196.25 149.19,-358.32 340.11,-378.85 13.49,-1.44 27.15,-2.23 41.01,-2.23 156.1,0 290.49,94.34 349.34,228.97 20.39,46.62 31.78,98.07 31.78,152.11 0,144.53 -80.84,270.51 -199.67,335.12" /><path
         id="path122"
         style="fill:#351914;fill-opacity:1;fill-rule:nonzero;stroke:none"
         d="m 5182.11,5403.22 c -42.48,-54.49 25.72,-142.6 101.05,-118.55 125.3,39.94 -16.05,261.97 -191.91,135.23 0,0 65.43,4.34 90.86,-16.68" /><path
         id="path124"
         style="fill:#351914;fill-opacity:1;fill-rule:nonzero;stroke:none"
         d="m 3194.11,6277.62 c 0,0 19.9,-6.27 40.68,-18.93 14.33,-8.75 29.08,-20.51 37.97,-35.49 -61.68,-149.61 138.32,-329 271.83,-164 0,0 9.84,-1.13 24,-12.36 9.3,-7.39 20.43,-19.05 31.91,-37.72 60.52,192.31 -222.51,349.53 -406.39,268.5" /><path
         id="path126"
         style="fill:#351914;fill-opacity:1;fill-rule:nonzero;stroke:none"
         d="m 4600.49,4429.71 v -0.84 c 0.14,0.19 0.27,0.37 0.41,0.56 l -0.41,0.28" /><path
         id="path128"
         style="fill:#351914;fill-opacity:1;fill-rule:nonzero;stroke:none"
         d="m 4667.75,4273.26 c -73.12,0 -144.51,-3.06 -213.79,6.49 26.04,18.84 57.31,44.41 87.82,76.3 91.58,-5.99 175.51,-29.72 255.86,-72.85 2.3,-1.25 4.66,-2.16 7.01,-3.22 -45.92,-4.49 -91.66,-6.72 -136.9,-6.72 z m -44.23,998.95 c -6.94,28.24 -7.78,71.33 -6.72,108.96 1.15,42.11 4.68,77.38 4.68,77.38 0,0 -24.49,-10.62 -45.85,-37.96 -0.06,-0.06 -0.12,-0.12 -0.18,-0.22 -2.17,-2.77 -4.3,-5.8 -6.41,-8.98 -14.61,-22.09 -26.17,-52.95 -24.59,-95.18 -10.5,6.21 -20.97,12.44 -31.32,18.81 -4.15,26.39 -4.61,50.7 -2.37,73.12 2.01,20.34 6.39,39.01 12.64,55.86 20.15,54.36 59.61,90.55 102.6,105.73 39.82,14.02 95.93,13.08 123.12,-35.84 5.1,-9.2 8.38,-18.54 10.22,-28.07 8.63,-44.82 -16.1,-94.37 -50.8,-156.03 -3.6,-6.37 -7.27,-12.93 -10.88,-19.56 -14.05,-25.72 -27.41,-53.06 -32.23,-79.23 -14.08,6.85 -28.03,13.94 -41.91,21.21 z m 23.84,-395.8 c 6.37,10.35 11.08,21.66 14.46,33.39 29.22,-4.53 57.07,-9.39 83.24,-14.88 -32.99,-12.6 -56.66,-40.45 -77.01,-64.57 -7.33,-8.65 -14.91,-17.64 -22.62,-25.68 -6.31,-6.55 -13.26,-8.05 -16.33,-5.65 -6.23,4.81 -10.27,31 18.26,77.39 z m -490.11,-61.33 c -6.1,-30.98 -0.14,-61.72 14.35,-87.64 -128.34,14.59 -277.69,16.25 -403.57,-23.57 -130.12,170.11 -213.19,377.87 -229.55,603.96 222.3,-258.22 569.12,-324.51 867.03,-364.1 -3.15,-10.21 -5.96,-20.82 -8.19,-32.21 -2.44,-12.28 -4.51,-21.64 -6.32,-28.77 -18.58,12.13 -44.85,27.43 -81.49,34.63 -70.13,13.77 -138.47,-32.11 -152.26,-102.3 z m -1.43,1844.76 18.32,51.84 c 3.22,9.16 15.16,53.61 -11.39,156.21 204.32,-81 318.66,-209 319.89,-210.37 l 31.83,-36.43 28.99,38.73 c 1.93,2.56 36.75,50.06 44.12,124.5 213.85,-131.66 242.09,-286.9 277.11,-479.36 36.07,-198.26 76.77,-420.55 317.22,-670.25 -21.4,-1.51 -43.59,-4.01 -66.97,-8.15 -69.63,-49.2 -87.64,-163.16 -87.64,-163.16 0,0 79.42,87.15 133.09,109.47 291.09,13.73 367.48,-252.73 77.95,-462.97 -46.56,0 -92.48,2.95 -137.75,8.38 -126.96,15.24 -248.73,50.63 -363.91,99.94 0,0 25.88,67.83 40.1,93.13 17.97,31.87 38.88,69.14 51.44,109.2 15,47.91 18.01,99.8 -10.6,151.36 -21.29,38.27 -54.87,64.36 -94.55,76.45 v 0 c -37.31,11.39 -80,10.43 -123.13,-4.77 -52.46,-18.51 -101.4,-57.63 -133.01,-114.51 -21.58,-38.83 -35.15,-85.9 -35.93,-140.64 -166.84,114.43 -312.6,249.96 -431,378.57 9.18,-30.25 31.05,-71.33 64.18,-118.63 0.02,0 0.02,-0.02 0.02,-0.02 104.76,-149.53 323.44,-361.86 620.74,-496.47 l 0.45,-0.41 c 0,0 -0.06,0.18 -0.06,0.24 133.46,-60.35 282.62,-105.08 444.47,-121.33 4.71,-0.47 9.44,-1 14.2,-1.41 -47.95,-35.46 -121.36,-80.62 -220.7,-115.89 -78.61,34.06 -166.62,55.23 -260.7,72.32 -1.55,5.45 -3.36,10.82 -5.63,15.98 -14.45,32.98 -42.05,55 -77.79,62.03 -54.45,10.74 -100.49,-5.2 -133.61,-43.54 -363.32,55.8 -775.36,139.32 -1090.11,646.66 12.38,-46.56 27.31,-89.67 44.11,-130.21 0.64,-1.78 1.14,-3.32 1.89,-5.29 25.94,-68.77 55.42,-140.98 55.42,-140.98 0,-287.13 100.72,-551.04 268.37,-758.79 -17.55,-141.21 -16.71,-262.44 -6.19,-364.59 28.87,-280.1 131.12,-415.37 131.12,-415.37 0,0 -2.37,10.76 -6.1,29.92 -21.48,109.88 -89.12,497.77 -26.87,742.36 190.52,65.41 649.06,45.3 649.06,45.3 0,0 -43.07,13.18 -110.98,27.93 -30.41,6.64 -65.8,13.55 -104.59,19.76 -19.86,17.37 -33.75,60.92 -29.39,82.95 5.45,27.81 45.27,46.51 73.1,40.98 26.76,-5.26 44.93,-17.4 60.92,-28.11 18.36,-12.26 41.19,-27.58 68.65,-16.13 30.86,12.79 40.28,49.59 50.2,100.14 20.45,103.8 70.9,93.82 89.92,90.13 10.49,-2.05 16.99,-7.17 21.1,-16.58 6.6,-15 4.62,-37.58 -4.57,-52.54 -55.32,-89.92 -35.98,-152.13 0.56,-180.37 35.9,-27.73 86.7,-22.15 120.76,13.38 9.44,9.84 17.84,19.77 25.94,29.37 31.39,37.15 42.54,46.61 62.5,42.78 1.93,-0.37 3.85,-0.88 5.7,-1.41 15.04,-4.35 27.97,-13.69 36.8,-26.81 9.94,-14.81 13.52,-32.58 10.08,-50.04 -2.62,-13.36 -9.02,-23.83 -17.66,-31.86 -16.72,-15.49 -41.97,-21.54 -65.58,-20.08 -58.28,3.99 -106.43,-21.97 -128.79,-69.18 -20,-42.3 -13.34,-92.2 16.62,-124.18 15.96,-17.03 62.34,-52.95 148.98,-18.67 0.92,0.37 2.29,1.02 3.25,1.49 0.11,0.05 0.25,0.11 0.35,0.15 0.84,0.43 21.44,10.47 49.25,5.02 17.47,-3.46 32.56,-13.47 42.49,-28.26 9.92,-14.79 13.49,-32.54 10.07,-50.02 -1.09,-5.57 -2.99,-11.17 -5.47,-16.58 -7.69,-16.84 -21.34,-31.97 -36.19,-39.01 -14.51,-6.81 -22.87,-2.36 -25.62,-0.89 -22.13,11.87 -44.81,22.34 -67.85,31.68 -53.34,21.66 -108.97,36.68 -166.45,44.76 0.04,0.06 0.08,0.1 0.1,0.14 l -4.81,0.49 c -16.38,2.18 -32.91,3.82 -49.57,4.92 l -36.23,3.59 c -66.75,-81.48 -152.42,-127.01 -153.32,-127.52 -9.61,-4.98 -16.74,-13.75 -19.65,-24.14 -2.94,-10.39 -1.42,-21.58 4.16,-30.84 1.63,-2.67 148.83,-240.53 439.16,-240.53 26.61,0 54.44,2.11 83.42,6.47 6.94,1.03 13.85,2.09 20.9,3.4 0,0 -35.25,2.89 -88.24,16.01 -79.84,19.81 -200.04,62.95 -301.37,154.96 57.03,-5.68 118.67,-7.12 172.83,-7.12 32.35,0 64.57,1.23 96.61,3.49 h 0.02 c 401.93,28.19 773.16,229.96 970.46,521.19 0.04,-0.02 0.06,-0.02 0.1,-0.04 -9.47,-19.12 -19.88,-37.55 -30.78,-55.6 -30.98,-57.97 -70.72,-132.36 -121.74,-227.85 -231.09,-432.52 -415.19,-393.93 -630.62,-644.63 -215.43,-250.69 -364.28,-43.09 -609.85,-172.33 -245.56,-129.25 -451.64,31.31 -663.14,113.58 -164.92,64.12 -775.54,-27.42 -873.46,375.41 -3.56,14.65 -7.38,28.9 -11.31,42.89 26.29,-26.49 62.68,-42.89 102.84,-42.89 79.96,0 145,65.04 145,145 0,50.19 -22.76,84.59 -29.95,94.2 -16.19,25.76 -20.65,48.24 -11.91,60.39 6.74,9.39 21.8,13.59 35.82,10.04 18.83,-4.75 30.98,-21.51 34.28,-47.05 10.57,-82.46 70.08,-140.06 144.67,-140.06 79.96,0 145,65.08 145,145.04 0,69.08 -52.29,98.18 -94.3,121.54 -9.92,5.51 -20.16,11.23 -29.53,17.25 -7.66,4.9 -10.43,11.44 -8.69,14.94 3.53,7.01 28.43,16.03 79.45,-3.01 40.82,-15.29 89.71,-9.51 124.48,14.61 15.64,10.86 27.43,24.78 35.21,40.82 6.93,14.34 10.68,30.33 10.68,47.48 0,62.38 -30.81,107.85 -85.5,131.27 -27.23,11.64 -60.28,17.93 -98.58,17.93 -12.54,0 -22.13,0.25 -29.47,0.64 8.33,20.59 18.3,49.32 18.3,86.64 0,71.53 -58.21,129.71 -129.73,129.71 -39.53,0 -75.38,-18.18 -99.32,-46.76 -0.29,-0.33 -0.62,-0.66 -0.91,-0.99 -26.29,28.32 -46.64,88.57 -62.02,155.33 127.31,139.51 215.84,364.53 240.44,431.52 4.56,12.44 6.93,19.44 6.93,19.44 0,0 -140.73,-229.55 -263.99,-366.37 -16.91,100.47 -23.83,192.07 -23.83,192.07 0,0 -81.39,-325.45 85.08,-534.94 3.01,-3.79 6.9,-6.51 11.17,-8.4 9.14,-4.04 20.32,-3.98 30.04,-0.31 14.25,5.37 24.1,18.51 25.27,33.69 1.57,20.37 15.18,37.26 33.44,44.08 5.55,2.07 11.49,3.3 17.7,3.3 28.32,0 51.38,-23.05 51.38,-51.37 0,-16.05 -2.95,-29.61 -6.86,-41.68 -2.74,-8.45 -5.93,-16.21 -8.98,-23.51 -8.52,-20.37 -19.11,-45.72 -2.63,-70.45 18.53,-27.83 56.44,-29.98 107.99,-29.98 16.85,0 31,-1.37 42.91,-3.71 62.81,-12.38 62.83,-52.42 62.83,-67.15 0,-10.68 -3.75,-18.07 -12.21,-23.91 -6.89,-4.78 -16.19,-7.73 -25.82,-8.65 -9.14,-0.88 -18.59,0.04 -26.6,3.03 -98.89,36.95 -156.24,5.97 -176.91,-35.33 -20.3,-40.59 -4.98,-89.34 36.42,-115.9 2.46,-1.58 4.88,-2.93 7.32,-4.44 8.94,-5.46 17.83,-10.52 26.45,-15.33 29.2,-16.23 43.77,-25.72 50.05,-36.56 2.87,-4.96 4.01,-10.22 4.01,-16.54 0,-36.78 -29.9,-66.7 -66.67,-66.7 -39.93,0 -62.4,35.99 -66.98,71.68 -0.86,6.66 -2.11,13.1 -3.67,19.31 -3.2,12.76 -7.85,24.53 -13.77,35.2 -0.02,0.04 -0.04,0.04 -0.04,0.08 -16.34,29.35 -42.4,50.11 -75.23,58.45 -45.33,11.43 -93.03,-4.68 -118.65,-40.21 -13.64,-18.93 -39.92,-71.43 10.39,-149.81 0.83,-1.28 1.71,-2.51 2.69,-3.69 0.04,-0.06 1.52,-2.15 3.44,-5.6 4.16,-7.5 10.58,-22.09 10.58,-41.27 0,-24.88 -13.73,-46.58 -33.99,-58.05 -9.66,-5.45 -20.79,-8.61 -32.68,-8.61 -2.99,0 -5.92,0.27 -8.79,0.64 -32.61,4.34 -57.88,32.27 -57.88,66.02 0,37.58 4.97,80.62 10.25,126.15 23.01,198.95 54.36,469.86 -250.32,784.12 5.65,13.09 12.05,27.23 18.2,42.72 146.76,369.25 468.99,619.25 552.03,679.16 12.72,9.18 19.86,13.94 19.86,13.94 -3.51,-0.96 -7.07,-2.11 -10.61,-3.14 -0.01,0 -0.01,0 -0.01,0 -228.46,-67.52 -493.52,-306.72 -661.75,-725.12 -6.1,-15.18 -3.51,-32.44 8.1,-43.95 297.95,-295.6 269.51,-541.3 246.68,-738.73 -4.63,-40 -8.85,-78 -10.16,-114.04 -112.02,282.58 -281.84,416.6 -247.82,606.13 40.08,223.25 -126.25,501.35 22.6,665.86 148.83,164.5 109.67,364.26 278.09,453.54 168.42,89.3 156.68,43.89 270.27,235.84 67.02,113.22 128.61,150.1 219.32,162.11 46.02,6.07 99.59,5.78 165.11,5.82 l 38.06,-16.11 c 157.09,-66.49 202.1,-184.34 213.2,-267.23 3.19,-23.89 3.62,-44.88 3.03,-60.9 -0.75,-20.37 -3.03,-32.73 -3.03,-32.73 0,0 134.53,260.64 -131.28,408.06 110.51,95.51 244.68,100.72 246.06,100.76 l 31.33,0.77 6.13,30.7 c 2.3,11.48 17.5,107.93 -71.34,298.4 172.65,-48.11 318.92,-163.42 320.58,-164.77 z m 759.47,-2364.47 c 31.78,22.87 55.84,59.16 63.52,98.28 15.41,78.44 -35.88,154.81 -114.34,170.2 -49.27,9.67 -87.4,-6.04 -98.2,-11.21 -28.38,-10.94 -51.31,-10.96 -61.54,-0.06 -7.89,8.46 -9.16,24.02 -2.97,37.07 8.3,17.56 27.11,26.27 52.81,24.59 82.99,-5.59 150.92,41.8 165.27,114.98 7.45,38.01 -0.31,76.66 -21.91,108.81 -2.27,3.38 -4.73,6.56 -7.25,9.72 9.3,-4.94 17.93,-10.13 25.9,-15.74 0,0 208.01,65.41 346.56,191.41 228.31,158.14 288.79,364.98 211.25,493.32 -0.19,0.33 -0.39,0.64 -0.6,0.97 -33.48,54.77 -92.07,95.18 -173.85,111.06 -279.39,258.12 -321.31,487.5 -358.18,690.23 -38.54,211.82 -74.94,411.9 -377.42,568.25 l -69.57,35.95 12.94,-77.22 c 6.57,-39.22 1,-72.33 -6.75,-96.41 -62.05,56.8 -193.73,159.39 -387.01,218.38 l -74.18,22.62 25.8,-73.13 c 17.61,-49.9 26.77,-88.03 31.4,-116.13 -4.72,3.1 -9.68,6.31 -14.86,9.57 v 0 c -80.74,51.23 -213.71,122.09 -356.21,141.78 l -76.74,10.6 36.95,-68.08 c 19.63,-36.16 35.41,-69.11 48.25,-99.05 -219.4,82.64 -458.62,82.7 -458.62,82.7 0,0 61.89,-128.65 72.4,-174.18 -202.03,57.24 -408.51,6.21 -408.51,6.21 0,0 89.76,-118.11 113.95,-162.07 -257.37,40.74 -397.53,-66.15 -397.53,-66.15 0,0 80.11,-34.12 121.06,-85.35 -161.07,-29.73 -282.74,-124.28 -282.74,-124.28 l 101.86,-90.24 -211.5,-127.48 -5.04,-8.55 c -168.98,-287.25 -258.28,-616.15 -258.26,-951.17 0,-1035.84 842.71,-1878.6 1878.57,-1878.6 1035.84,0 1878.55,842.76 1878.55,1878.6 -180.01,-484.24 -568.47,-729.57 -963.26,-800.2" /><g
         transform="scale(10)"
         id="g130"><text
           id="text134"
           style="font-variant:normal;font-weight:900;font-size:152.58299255px;font-family:Montserrat;-inkscape-font-specification:Montserrat-Black;writing-mode:lr-tb;fill:#f2521c;fill-opacity:1;fill-rule:nonzero;stroke:none"
           transform="matrix(1,0,0,-1,41.3578,175.252)"><tspan
             id="tspan132"
             y="0"
             x="0 104.97601 155.6313 244.73978 295.39508 405.10413 502.90784 615.9718">CILIATUS</tspan></text>
</g></g></g></svg>