<?xml version="1.0" encoding="UTF-8" standalone="no"?>
<svg
   xmlns:dc="http://purl.org/dc/elements/1.1/"
   xmlns:cc="http://creativecommons.org/ns#"
   xmlns:rdf="http://www.w3.org/1999/02/22-rdf-syntax-ns#"
   xmlns:svg="http://www.w3.org/2000/svg"
   xmlns="http://www.w3.org/2000/svg"
   viewBox="0 0 1066.6667 1066.6667"
   height="1066.6667"
   width="1066.6667"
   xml:space="preserve"
   id="svg2"
   version="1.1"><metadata
     id="metadata8"><rdf:RDF><cc:Work
         rdf:about=""><dc:format>image/svg+xml</dc:format><dc:type
           rdf:resource="http://purl.org/dc/dcmitype/StillImage" /></cc:Work></rdf:RDF></metadata><defs
     id="defs6" /><g
     transform="matrix(1.3333333,0,0,-1.3333333,0,1066.6667)"
     id="g10"><g
       transform="scale(0.1)"
       id="g12"><path
         id="path14"
         style="fill:#f2521c;fill-opacity:1;fill-rule:nonzero;stroke:none"
         d="m 3472.35,5759.88 c 1.09,29.57 0.31,68.36 -5.59,112.47 v -172.94 l 5.59,60.47" /><path
         id="path16"
         style="fill:#f2521c;fill-opacity:1;fill-rule:nonzero;stroke:none"
         d="m 4134.65,2086.34 c 94.37,0 170.87,-76.51 170.87,-170.82 0,-94.33 -76.5,-170.83 -170.87,-170.83 -94.36,0 -170.82,76.5 -170.82,170.83 0,94.31 76.46,170.82 170.82,170.82 z m 429.4,-622.33 c 0,-90.54 -73.31,-163.99 -163.95,-163.99 -90.46,0 -163.9,73.45 -163.9,163.99 0,90.56 73.44,163.93 163.9,163.93 90.64,0 163.95,-73.37 163.95,-163.93 z m 445.28,2326.54 c 41.23,0 74.67,-33.44 74.67,-74.71 0,-41.26 -33.44,-74.7 -74.67,-74.7 -41.23,0 -74.71,33.44 -74.71,74.7 0,41.27 33.48,74.71 74.71,74.71 z m -240.1,-2106.88 c 60.59,0 109.82,-49.24 109.82,-109.85 0,-60.65 -49.23,-109.81 -109.82,-109.81 -60.65,0 -109.83,49.16 -109.83,109.81 0,60.61 49.18,109.85 109.83,109.85 z M 3014.38,3030.79 c -14.34,-29.63 -36.15,-55.36 -65.02,-75.4 -64.24,-44.58 -154.53,-55.25 -229.96,-27 -94.22,35.18 -140.21,18.5 -146.73,5.54 -3.23,-6.45 1.89,-18.52 16.04,-27.6 17.32,-11.1 36.24,-21.65 54.54,-31.82 77.63,-43.14 174.22,-96.91 174.22,-224.53 0,-147.7 -120.16,-267.87 -267.85,-267.87 -137.8,0 -247.71,106.35 -267.25,258.65 -6.06,47.25 -28.54,78.15 -63.3,86.95 -25.9,6.54 -53.71,-1.23 -66.19,-18.59 -16.13,-22.4 -7.89,-63.94 22.01,-111.52 13.28,-17.75 55.33,-81.28 55.33,-174.01 0,-147.7 -120.15,-267.84 -267.83,-267.84 -74.2,0 -141.4,30.34 -189.96,79.24 7.27,-25.86 14.3,-52.15 20.88,-79.24 180.88,-744.07 1308.79,-574.96 1613.42,-693.43 390.68,-151.93 771.32,-448.57 1224.93,-209.81 453.6,238.74 728.54,-144.71 1126.47,318.34 397.91,463.05 737.97,391.77 1164.83,1190.7 94.25,176.4 167.66,313.8 224.88,420.9 -393.22,-651.97 -1262,-923.39 -1736.08,-860.06 -101.33,-75.5 -105.29,-207.63 59.12,-279.4 97.89,-24.27 163,-29.6 163,-29.6 -13.03,-2.41 -25.81,-4.36 -38.59,-6.27 0.09,-0.02 0.16,-0.04 0.24,-0.05 -488.17,-152.2 -1089.08,181.13 -1084.24,610.42 191.48,68.12 380.1,287.54 421.88,338.3 l 0.01,0.04 v 0 c 5.57,6.74 8.62,10.62 8.62,10.62 0,0 3.54,-9 7.69,-23.26 155.25,-117.21 467.17,-266.03 467.17,-266.03 0,0 -0.18,-0.12 -0.22,-0.14 42.55,-17.27 84.44,-36.59 125.34,-58.52 5.08,-2.73 20.51,-10.97 47.3,1.64 27.46,13.01 52.64,40.94 66.88,72.08 -18.05,-9.59 -38.58,-15.06 -60.43,-15.06 -71.24,0 -129.02,57.77 -129.02,129.01 0,18.4 3.91,35.88 10.85,51.7 -1.8,-0.88 -4.3,-2.05 -6.01,-2.71 -160.05,-63.37 -245.73,3.01 -275.22,34.45 -55.32,59.05 -67.63,151.22 -30.66,229.35 41.28,87.21 130.2,135.17 237.87,127.83 43.62,-2.76 90.26,8.47 121.13,37.09 -10.42,-3.51 -21.54,-5.48 -33.12,-5.48 -57.51,0 -104.16,46.64 -104.16,104.19 0,50.39 35.8,92.42 83.33,102.07 -3.46,0.98 -6.97,1.9 -10.54,2.61 -36.85,7.09 -57.49,-10.4 -115.45,-79.03 -14.97,-17.73 -30.46,-36.05 -47.91,-54.24 -62.93,-65.6 -156.73,-75.96 -223.07,-24.71 -67.49,52.16 -103.21,167.08 -1.04,333.2 16.99,27.58 20.62,69.3 8.48,97.02 -7.6,17.37 -19.63,26.83 -39,30.64 -35.15,6.8 -128.32,25.23 -166.09,-166.51 -18.35,-93.36 -35.72,-161.32 -92.74,-184.99 -50.69,-21.11 -92.89,7.15 -126.77,29.82 -180.89,-56.53 0,-213.49 0,-213.49 h -0.09 c 125.45,-27.26 204.96,-51.61 204.96,-51.61 -277.06,-46.08 -1087.97,-204.73 -1087.97,-204.73 0,0 -47.76,-659.31 -61.29,-1250.16 6.91,-35.41 11.26,-55.31 11.26,-55.31 -217.9,226.39 -311.53,552.83 -336.8,841.06 -146.74,127.37 -271.42,298.79 -372.08,496.56" /><path
         id="path18"
         style="fill:#f2521c;fill-opacity:1;fill-rule:nonzero;stroke:none"
         d="m 5411.9,2322.5 h -0.01 c -0.01,-0.02 -0.03,-0.04 -0.05,-0.05 l 0.06,0.05" /><path
         id="path20"
         style="fill:#f2521c;fill-opacity:1;fill-rule:nonzero;stroke:none"
         d="m 5335.63,5593.54 c -20.89,51.6 -41.46,88.33 -58.7,114.08 -108.73,-248.66 -356.97,-422.93 -645.27,-422.93 -25.61,0 -50.86,1.46 -75.75,4.13 l -15.21,-4.13 c -738.44,0 -777.04,835.68 -646.8,1085.42 l 98.34,-87.31 0.05,-0.07 c 111.61,241.66 356.16,409.87 639.37,409.87 121.24,0 235.42,-30.82 335.13,-85.01 v 0 c 368.84,-167.55 538.09,-551.01 368.84,-1014.05 z M 6370.21,4340.82 c -198.22,-95.1 -279.28,194.67 -279.28,194.67 l -75.21,55.11 c 324.85,234.13 585.91,-176 354.49,-249.78 z M 3262.07,5678.98 c -21.2,34.51 -41.77,56.06 -58.93,69.67 -283.54,-432.3 -773.17,40.67 -616.6,391.33 -38.36,23.4 -75.12,34.98 -75.12,34.98 339.65,149.66 862.43,-140.75 750.65,-495.98 z m -862.8,-597.4 c -60.64,0 -109.84,49.16 -109.84,109.81 0,60.66 49.2,109.85 109.84,109.85 60.66,0 109.85,-49.19 109.85,-109.85 0,-60.65 -49.19,-109.81 -109.85,-109.81 z M 2289.43,4794.7 c -60.65,0 -109.79,49.24 -109.79,109.82 0,60.68 49.14,109.84 109.79,109.84 60.68,0 109.84,-49.16 109.84,-109.84 0,-60.58 -49.16,-109.82 -109.84,-109.82 z m 2645.19,1897.9 c 0,0 -117.06,152.61 -500.52,405.83 13.42,-192.59 -130.34,-332.81 -130.34,-332.81 0,0 -115.64,115.76 -513.57,274.93 122.99,-231.53 45.58,-499.22 45.58,-499.22 0,0 -168.58,14.47 -456.74,-65.12 143.42,-76.85 389.45,-397.93 87.73,-776.8 -103.44,357.17 -306.02,595.92 -769.1,685.56 -167.56,-22.18 -281.33,-90.26 -405.12,-299.44 -209.82,-354.53 -188.12,-270.7 -499.23,-435.61 -311.1,-164.91 -238.76,-533.9 -513.68,-837.77 -274.94,-303.87 32.29,-817.56 -41.73,-1229.95 -62.85,-350.09 250.83,-597.66 457.73,-1119.61 2.45,66.57 10.24,136.78 18.79,210.67 42.19,364.66 94.67,818.53 -455.65,1364.53 -21.46,21.27 -26.24,53.16 -14.97,81.17 310.76,772.86 800.35,1214.72 1222.36,1339.41 l 0.05,0.03 c -0.01,0 -0.02,-0.01 -0.03,-0.02 6.53,1.93 13.11,4.02 19.61,5.8 0,0 -13.23,-8.8 -36.71,-25.74 -467.86,-545.84 -776.04,-815.96 -947.59,-1344.89 216.54,-226.21 448.58,-593.3 448.58,-1205.84 -1.92,-105.1 -97.14,-399.89 -3.95,-586.05 5.34,-0.69 10.75,-1.2 16.27,-1.2 21.94,0 42.5,5.85 60.37,15.93 -1.7,-0.09 -3.38,-0.26 -5.08,-0.26 -54.25,0 -98.25,43.96 -98.25,98.23 0,54.25 44,98.24 98.25,98.24 17.56,0 34.03,-4.68 48.31,-12.78 -3.54,6.4 -6.27,10.26 -6.35,10.38 -1.8,2.16 -3.45,4.43 -4.98,6.8 -92.91,144.78 -44.37,241.75 -19.18,276.7 47.32,65.66 135.43,95.42 219.15,74.29 60.66,-15.39 108.8,-53.75 138.96,-107.95 0.02,0 0.02,0.01 0.03,0.01 0.02,-0.06 0.05,-0.12 0.06,-0.18 10.95,-19.69 19.53,-41.43 25.43,-64.99 30.34,-60.05 70.19,-90.44 112.46,-97.8 -36.44,14.36 -62.27,49.78 -62.27,91.33 0,38.62 22.34,71.92 54.74,87.99 -4.51,2.75 -8.97,5.27 -13.5,8.19 -76.5,49.08 -104.79,139.12 -67.27,214.07 38.17,76.34 144.1,133.51 326.78,65.28 14.76,-5.52 32.23,-7.24 49.13,-5.6 -52.43,2.69 -94.16,45.92 -94.16,99.04 0,36.2 19.42,67.78 48.35,85.13 -22,4.35 -48.15,6.86 -79.29,6.86 -95.19,0 -165.23,3.96 -199.46,55.38 -30.42,45.67 -10.87,92.49 4.85,130.11 5.64,13.51 11.55,27.84 16.59,43.44 -14.73,-8.35 -31.71,-13.17 -49.85,-13.17 -55.97,0 -101.33,45.34 -101.33,101.33 0,31.2 14.11,59.06 36.27,77.63 -33.73,-12.59 -58.88,-43.8 -61.77,-81.45 -2.15,-28.03 -20.37,-52.29 -46.68,-62.19 -17.97,-6.78 -38.59,-6.9 -55.48,0.57 v 0 c -179.57,22.98 -400.49,526.13 -177.8,1003.64 112.53,-141 531.64,321.96 531.64,321.96 0,0 -4.36,-12.93 -12.79,-35.9 -58.11,-403.27 -367.72,-933.59 -367.72,-933.59 l 39.82,-148.6 c 44.22,52.78 110.43,86.35 183.46,86.35 132.13,0 239.61,-107.47 239.61,-239.59 0,-68.96 -18.39,-122.01 -33.77,-160.02 13.54,-0.7 31.26,-1.19 54.41,-1.19 70.77,0 131.81,-11.61 182.11,-33.15 -186.18,547.57 -218.21,1200.03 -66.74,1685.28 635.87,-648.18 1190.55,-976.79 1921.28,-1039.53 412.67,147.59 737.98,-196.69 1106.97,-196.69 109.04,0 196.56,34 249.22,61.14 -298.99,30.02 -574.49,112.62 -820.96,224.1 0,-0.09 0.08,-0.44 0.08,-0.44 l -0.82,0.78 c -549.18,248.61 -953.09,640.86 -1146.64,917.05 v 0.01 l -0.01,0.01 c -61.22,87.38 -101.59,163.26 -118.57,219.14 414.82,-250.82 659.1,-536.58 862.49,-439.49 0,0 0,0 0.02,0 58.38,105.07 148.78,177.32 245.67,211.5 79.66,28.08 158.53,29.86 227.45,8.84 v 0 0 c 73.31,-22.37 135.34,-70.54 174.63,-141.22 52.88,-95.24 47.35,-191.12 19.6,-279.62 1.32,-3.6 153.11,-416.59 503.08,-558.32 83.64,-10.04 168.48,-15.46 254.46,-15.46 384.59,479.22 265.28,714.86 -94.44,789.31 -78.86,2.41 -295.37,-136.36 -295.37,-136.36 0,0 33.29,210.5 161.89,301.38 -762,787.99 -334.93,1397.77 -882.58,1966.92 -64.08,-127.66 -242.28,-246.66 -242.28,-246.66" /><path
         id="path22"
         style="fill:#f2521c;fill-opacity:1;fill-rule:nonzero;stroke:none"
         d="m 2672.76,2649.98 c 0,11.68 -2.1,21.39 -7.4,30.55 -1.61,-20.25 -9.32,-38.76 -21.34,-53.68 9.84,6.75 19.45,14.48 28.74,23.13" /><path
         id="path24"
         style="fill:#351914;fill-opacity:1;fill-rule:nonzero;stroke:none"
         d="m 4236.2,1464.01 c 0,-90.54 73.44,-163.99 163.9,-163.99 90.64,0 163.95,73.45 163.95,163.99 0,90.56 -73.31,163.93 -163.95,163.93 -90.46,0 -163.9,-73.37 -163.9,-163.93" /><path
         id="path26"
         style="fill:#351914;fill-opacity:1;fill-rule:nonzero;stroke:none"
         d="m 4769.23,1464.01 c 60.59,0 109.82,49.16 109.82,109.81 0,60.61 -49.23,109.85 -109.82,109.85 -60.65,0 -109.83,-49.24 -109.83,-109.85 0,-60.65 49.18,-109.81 109.83,-109.81" /><path
         id="path28"
         style="fill:#351914;fill-opacity:1;fill-rule:nonzero;stroke:none"
         d="m 4134.65,1744.69 c 94.37,0 170.87,76.5 170.87,170.83 0,94.31 -76.5,170.82 -170.87,170.82 -94.36,0 -170.82,-76.51 -170.82,-170.82 0,-94.33 76.46,-170.83 170.82,-170.83" /><path
         id="path30"
         style="fill:#351914;fill-opacity:1;fill-rule:nonzero;stroke:none"
         d="m 2399.27,5301.24 c -60.64,0 -109.84,-49.19 -109.84,-109.85 0,-60.65 49.2,-109.81 109.84,-109.81 60.66,0 109.85,49.16 109.85,109.81 0,60.66 -49.19,109.85 -109.85,109.85" /><path
         id="path32"
         style="fill:#351914;fill-opacity:1;fill-rule:nonzero;stroke:none"
         d="m 2289.43,5014.36 c -60.65,0 -109.79,-49.16 -109.79,-109.84 0,-60.58 49.14,-109.82 109.79,-109.82 60.68,0 109.84,49.24 109.84,109.82 0,60.68 -49.16,109.84 -109.84,109.84" /><path
         id="path34"
         style="fill:#ffffff;fill-opacity:1;fill-rule:nonzero;stroke:none"
         d="m 4437.4,5464.88 c -85.71,104.71 -104.53,328.56 -39.79,571.11 40.19,-29.43 89.29,-47.36 142.84,-47.36 134.11,0 242.75,108.7 242.75,242.82 0,107.32 -70.12,197.36 -166.74,229.37 31.76,33.97 64.59,61.03 97.42,80.33 -26.92,4.01 -54.22,6.76 -82.22,6.76 -308.4,0 -559.32,-250.9 -559.32,-559.28 0,-240 152.28,-444.57 365.06,-523.75" /><path
         id="path36"
         style="fill:#ffffff;fill-opacity:1;fill-rule:nonzero;stroke:none"
         d="m 4998.86,6409.43 c 39.88,-126.83 35.07,-312.22 -23.37,-506.25 -68.91,-228.77 -193.31,-406.42 -315.93,-472.38 295.38,14.69 531.37,258.89 531.37,557.83 0,167.82 -74.64,318.19 -192.07,420.8" /><path
         id="path38"
         style="fill:#f78f7e;fill-opacity:1;fill-rule:nonzero;stroke:none"
         d="m 5335.63,5012.63 v 0 0 z" /><path
         id="path40"
         style="fill:#f78f7e;fill-opacity:1;fill-rule:nonzero;stroke:none"
         d="m 5308.76,4461.08 c 64.12,113.92 109.8,205.43 93.85,288.22 -31.82,-8.71 -69.8,-11.66 -105.13,4.97 -82.01,38.59 -135.03,57.88 -330.67,-82.16 -11.58,-31.2 -19.62,-65.66 -23.35,-103.24 56.63,-33.99 91.09,-12.13 107.68,6.04 3.86,5.83 7.78,11.42 11.8,16.58 0.16,0.29 0.25,0.49 0.25,0.49 0,0 0.07,-0.08 0.08,-0.09 39.5,50.47 84.71,70.13 84.71,70.13 0,0 -6.52,-65.16 -8.66,-142.95 42.08,-35.95 96.41,-75.42 149.38,-94.08 6.69,12.25 13.45,24.35 20.06,36.09" /><path
         id="path42"
         style="fill:#ee431e;fill-opacity:1;fill-rule:nonzero;stroke:none"
         d="m 4118.58,5012.62 c 0,0.01 0,0.02 -0.01,0.02 l 0.01,-0.01 v -0.01" /><path
         id="path44"
         style="fill:#ee431e;fill-opacity:1;fill-rule:nonzero;stroke:none"
         d="m 4000,5231.78 c 218.74,-237.59 487.94,-487.93 796.13,-699.28 1.45,101.13 26.52,188.05 66.38,259.79 -0.02,0 -0.02,0 -0.02,0 -203.39,-97.09 -447.67,188.67 -862.49,439.49" /><path
         id="path46"
         style="fill:#ee431e;fill-opacity:1;fill-rule:nonzero;stroke:none"
         d="m 5529.86,4591.79 c -23.19,-73.99 -61.85,-142.81 -95,-201.7 -26.29,-46.69 -74.1,-171.98 -74.1,-171.98 212.76,-91.1 437.68,-156.49 672.18,-184.64 -349.97,141.73 -501.76,554.72 -503.08,558.32" /><path
         id="path48"
         style="fill:#ee431e;fill-opacity:1;fill-rule:nonzero;stroke:none"
         d="m 4730.73,4006.68 c -730.73,62.74 -1285.41,391.35 -1921.28,1039.53 581.38,-937.13 1342.49,-1091.44 2013.6,-1194.49 61.18,70.83 146.2,100.27 246.8,80.41 65.99,-12.97 117.01,-53.66 143.69,-114.59 4.17,-9.53 7.56,-19.42 10.41,-29.52 173.76,-31.54 336.34,-70.66 481.54,-133.56 183.48,65.14 319.13,148.57 407.65,214.03 -8.77,0.78 -17.48,1.77 -26.22,2.64 -52.66,-27.14 -140.18,-61.14 -249.22,-61.14 -368.99,0 -694.3,344.28 -1106.97,196.69" /><path
         id="path50"
         style="fill:#ee431e;fill-opacity:1;fill-rule:nonzero;stroke:none"
         d="m 3466.76,5699.41 v 172.94 c -20.49,153.14 -103.66,370.8 -393.82,493.63 l -70.3,29.75 c -121.02,-0.03 -219.99,0.49 -304.98,-10.76 463.08,-89.64 665.66,-328.39 769.1,-685.56" /><path
         id="path52"
         style="fill:#ee431e;fill-opacity:1;fill-rule:nonzero;stroke:none"
         d="m 4966.79,6607.59 c 219.51,-119.33 368.84,-352.02 368.84,-618.96 0,-99.86 -21.02,-194.86 -58.7,-281.01 17.24,-25.75 37.81,-62.48 58.7,-114.08 169.25,463.04 0,846.5 -368.84,1014.05 v 0" /><path
         id="path54"
         style="fill:#b65e56;fill-opacity:1;fill-rule:nonzero;stroke:none"
         d="m 5062.94,4591.49 c 0.12,0.15 0.21,0.27 0.33,0.4 -0.01,0.01 -0.08,0.09 -0.08,0.09 0,0 -0.09,-0.2 -0.25,-0.49" /><path
         id="path56"
         style="fill:#b65e56;fill-opacity:1;fill-rule:nonzero;stroke:none"
         d="m 5139.32,4519.07 c -1.93,-69.52 -0.37,-149.11 12.45,-201.28 25.6,-13.4 51.37,-26.51 77.4,-39.2 8.9,48.36 33.58,98.9 59.53,146.4 -52.97,18.66 -107.3,58.13 -149.38,94.08" /><path
         id="path58"
         style="fill:#b65e56;fill-opacity:1;fill-rule:nonzero;stroke:none"
         d="m 4943.46,4568.87 c -4.13,-41.39 -3.27,-86.3 4.36,-135.03 19.13,-11.79 38.47,-23.3 57.88,-34.74 -2.94,77.97 18.46,135 45.44,175.81 -16.59,-18.17 -51.05,-40.03 -107.68,-6.04" /><path
         id="path60"
         style="fill:#ee431e;fill-opacity:1;fill-rule:nonzero;stroke:none"
         d="m 1950.07,2887.71 c 0,612.54 -232.04,979.63 -448.58,1205.84 171.55,528.93 479.73,799.05 947.59,1344.89 -153.36,-110.65 -748.6,-572.46 -1019.69,-1254.53 -11.35,-28.6 -23.17,-54.73 -33.62,-78.89 562.83,-580.48 504.89,-1080.95 462.39,-1448.38 -9.73,-84.13 -18.91,-163.61 -18.91,-233.05 0,-62.35 46.66,-113.93 106.87,-121.93 -93.19,186.16 2.03,480.95 3.95,586.05" /><path
         id="path62"
         style="fill:#ee431e;fill-opacity:1;fill-rule:nonzero;stroke:none"
         d="m 2466.16,5458.37 c 0.01,0 0.01,0 0.02,0.01 0.01,0.01 0.02,0.02 0.03,0.02 l -0.05,-0.03" /><path
         id="path64"
         style="fill:#ee431e;fill-opacity:1;fill-rule:nonzero;stroke:none"
         d="m 2059.42,4504.66 c 0,0 12.78,-169.24 44.04,-354.83 227.67,252.76 487.6,676.79 487.6,676.79 0,0 -419.11,-462.96 -531.64,-321.96" /><path
         id="path66"
         style="fill:#ee431e;fill-opacity:1;fill-rule:nonzero;stroke:none"
         d="m 4656.39,3468.47 c -29.6,19.78 -63.14,42.21 -112.51,51.91 -51.44,10.21 -125,-24.31 -135.1,-75.65 -8,-40.73 17.61,-121.19 54.32,-153.27 71.63,-11.46 137.02,-24.26 193.2,-36.48 h 0.09 c 0,0 -180.89,156.96 0,213.49" /><path
         id="path68"
         style="fill:#ee431e;fill-opacity:1;fill-rule:nonzero;stroke:none"
         d="m 3723.26,1693.17 c 0,0 -188.87,249.86 -242.18,767.24 -32.5,22.57 -64.02,47.28 -94.62,73.82 25.27,-288.23 118.9,-614.67 336.8,-841.06" /><path
         id="path70"
         style="fill:#ee431e;fill-opacity:1;fill-rule:nonzero;stroke:none"
         d="m 5411.76,2322.39 h -0.02 l 0.1,0.06 c 0.02,0.01 0.04,0.03 0.05,0.05 -59.18,-4.16 -118.69,-6.45 -178.44,-6.45 -100.03,0 -213.88,2.69 -319.26,13.16 187.18,-169.97 409.21,-249.65 556.69,-286.22 -164.41,71.77 -160.45,203.9 -59.12,279.4" /><path
         id="path72"
         style="fill:#ee431e;fill-opacity:1;fill-rule:nonzero;stroke:none"
         d="m 5109.23,2761.55 0.73,-0.48 c -0.23,-0.37 -0.52,-0.68 -0.73,-1.02 z m -159.74,181.64 c -4.15,14.26 -7.69,23.26 -7.69,23.26 0,0 -3.05,-3.88 -8.62,-10.62 v 0 l -0.01,-0.04 c -41.78,-50.76 -230.4,-270.18 -421.88,-338.3 -4.84,-429.29 596.07,-762.62 1084.24,-610.42 -0.08,0.01 -0.15,0.03 -0.24,0.05 -53.53,-8.05 -105,-11.95 -154.1,-11.95 -536.3,0 -808.21,439.37 -811.2,444.31 -10.31,17.09 -13.11,37.73 -7.7,56.98 5.4,19.2 18.55,35.39 36.29,44.59 1.71,0.91 159.91,84.99 283.22,235.53 l 66.92,-6.63 c 30.78,-2.02 61.3,-5.04 91.54,-9.11 l 8.9,-0.87 c -0.05,-0.09 -0.12,-0.16 -0.17,-0.23 106.18,-14.97 208.89,-42.74 307.45,-82.72 0.04,0.02 0.22,0.14 0.22,0.14 0,0 -311.92,148.82 -467.17,266.03" /><path
         id="path74"
         style="fill:#ee431e;fill-opacity:1;fill-rule:nonzero;stroke:none"
         d="m 2567.53,2590.21 c -12.71,0 -24.81,2.48 -35.96,6.87 -42.27,7.36 -82.12,37.75 -112.46,97.8 2.88,-11.5 5.2,-23.39 6.78,-35.69 8.46,-65.92 49.99,-132.39 123.73,-132.39 67.9,0 123.14,55.25 123.14,123.18 -9.29,-8.65 -18.9,-16.38 -28.74,-23.13 -18.01,-22.34 -45.56,-36.64 -76.49,-36.64" /><path
         id="path76"
         style="fill:#ee431e;fill-opacity:1;fill-rule:nonzero;stroke:none"
         d="m 2393.59,2760.04 c 0.03,-0.05 0.07,-0.12 0.09,-0.17 -0.01,0.06 -0.04,0.12 -0.06,0.18 -0.01,0 -0.01,-0.01 -0.03,-0.01" /><path
         id="path78"
         style="fill:#ee431e;fill-opacity:1;fill-rule:nonzero;stroke:none"
         d="m 2578.27,4790.72 c -45.43,-123.77 -208.96,-539.39 -444.12,-797.12 28.4,-123.3 65.98,-234.61 114.52,-286.92 0.54,0.64 1.16,1.22 1.7,1.85 l -39.82,148.6 c 0,0 309.61,530.32 367.72,933.59" /><path
         id="path80"
         style="fill:#f46f26;fill-opacity:1;fill-rule:nonzero;stroke:none"
         d="m 2876.19,3360.93 c 101.02,-43.23 157.93,-127.22 157.93,-242.43 0,-31.71 -6.91,-61.24 -19.74,-87.71 100.66,-197.77 225.34,-369.19 372.08,-496.56 30.6,-26.54 62.12,-51.25 94.62,-73.82 -19.43,188.7 -20.99,412.66 11.42,673.5 -309.66,383.76 -495.69,871.21 -495.69,1401.58 0,0 -54.48,133.4 -102.38,260.39 -1.38,3.65 -2.32,6.5 -3.49,9.79 -31.02,74.9 -58.62,154.52 -81.49,240.54 -151.47,-485.25 -119.44,-1137.71 66.74,-1685.28" /><path
         id="path82"
         style="fill:#f46f26;fill-opacity:1;fill-rule:nonzero;stroke:none"
         d="m 2656.71,6074.42 c -16.44,27.67 -43.68,49.41 -70.17,65.56 -156.57,-350.66 333.06,-823.63 616.6,-391.33 -26.15,20.74 -44.34,22.85 -44.34,22.85 -246.6,-304.79 -616.04,26.57 -502.09,302.92" /><path
         id="path84"
         style="fill:#f46f26;fill-opacity:1;fill-rule:nonzero;stroke:none"
         d="m 3927.66,5988.63 c 0,104.96 23.25,204.53 64.63,294.1 l -0.05,0.07 -98.34,87.31 c -130.24,-249.74 -91.64,-1085.42 646.8,-1085.42 l 15.21,4.13 c -352.69,37.92 -628.25,337.25 -628.25,699.81" /><path
         id="path86"
         style="fill:#f46f26;fill-opacity:1;fill-rule:nonzero;stroke:none"
         d="m 4861.26,3203.37 c 0,0 -846.96,37.16 -1198.89,-83.65 -114.99,-451.8 9.96,-1168.3 49.63,-1371.24 13.53,590.85 61.29,1250.16 61.29,1250.16 0,0 810.91,158.65 1087.97,204.73" /><path
         id="path88"
         style="fill:#f46f26;fill-opacity:1;fill-rule:nonzero;stroke:none"
         d="m 5411.74,2322.39 h 0.02 c 474.08,-63.33 1342.86,208.09 1736.08,860.06 20.12,33.34 39.35,67.37 56.86,102.72 -0.05,0.03 -0.1,0.04 -0.17,0.06 C 6840.08,2747.29 6154.38,2374.6 5411.9,2322.5 l -0.06,-0.05 -0.1,-0.06" /><path
         id="path90"
         style="fill:#f46f26;fill-opacity:1;fill-rule:nonzero;stroke:none"
         d="m 5595.53,2677.16 c 21.85,0 42.38,5.47 60.43,15.06 4.58,9.99 8.06,20.33 10.08,30.61 6.32,32.28 -0.28,65.08 -18.6,92.39 -18.34,27.3 -46.2,45.84 -78.46,52.17 -51.37,10.1 -89.42,-8.44 -91,-9.22 -0.17,-0.08 -0.43,-0.2 -0.62,-0.3 -6.94,-15.82 -10.85,-33.3 -10.85,-51.7 0,-71.24 57.78,-129.01 129.02,-129.01" /><path
         id="path92"
         style="fill:#f46f26;fill-opacity:1;fill-rule:nonzero;stroke:none"
         d="m 2364.88,3566.46 c 0,-55.99 45.36,-101.33 101.33,-101.33 18.14,0 35.12,4.82 49.85,13.17 7.23,22.33 12.67,47.35 12.67,76.99 0,52.33 -42.58,94.9 -94.9,94.9 -11.46,0 -22.43,-2.27 -32.68,-6.1 -22.16,-18.57 -36.27,-46.43 -36.27,-77.63" /><path
         id="path94"
         style="fill:#f46f26;fill-opacity:1;fill-rule:nonzero;stroke:none"
         d="m 5009.33,3641.14 c 41.23,0 74.67,33.44 74.67,74.7 0,41.27 -33.44,74.71 -74.67,74.71 -41.23,0 -74.71,-33.44 -74.71,-74.71 0,-41.26 33.48,-74.7 74.71,-74.7" /><path
         id="path96"
         style="fill:#f46f26;fill-opacity:1;fill-rule:nonzero;stroke:none"
         d="m 5387.19,3382.59 c 0,-57.55 46.65,-104.19 104.16,-104.19 11.58,0 22.7,1.97 33.12,5.48 15.97,14.79 27.81,34.15 32.65,58.83 6.33,32.26 -0.28,65.08 -18.63,92.41 -16.29,24.28 -40.2,41.53 -67.97,49.54 -47.53,-9.65 -83.33,-51.68 -83.33,-102.07" /><path
         id="path98"
         style="fill:#f46f26;fill-opacity:1;fill-rule:nonzero;stroke:none"
         d="m 2725.02,3157.38 c 0,-53.12 41.73,-96.35 94.16,-99.04 17.78,1.7 34.94,7.13 47.7,15.96 15.59,10.82 22.54,24.44 22.54,44.2 0,27.19 -0.04,101.13 -116.05,124.01 -28.93,-17.35 -48.35,-48.93 -48.35,-85.13" /><path
         id="path100"
         style="fill:#f46f26;fill-opacity:1;fill-rule:nonzero;stroke:none"
         d="m 2469.3,2688.41 c 0,-41.55 25.83,-76.97 62.27,-91.33 11.15,-4.39 23.25,-6.87 35.96,-6.87 30.93,0 58.48,14.3 76.49,36.64 12.02,14.92 19.73,33.43 21.34,53.68 -11.59,20.07 -38.51,37.54 -92.45,67.54 -15.93,8.86 -32.32,18.24 -48.87,28.33 -32.4,-16.07 -54.74,-49.37 -54.74,-87.99" /><path
         id="path102"
         style="fill:#f46f26;fill-opacity:1;fill-rule:nonzero;stroke:none"
         d="m 1919.43,2414.36 c 0,-54.27 44,-98.23 98.25,-98.23 1.7,0 3.38,0.17 5.08,0.26 37.42,21.16 62.78,61.26 62.78,107.2 0,35.42 -11.89,62.4 -19.55,76.23 -14.28,8.1 -30.75,12.78 -48.31,12.78 -54.25,0 -98.25,-43.99 -98.25,-98.24" /><path
         id="path104"
         style="fill:#f46f26;fill-opacity:1;fill-rule:nonzero;stroke:none"
         d="m 2237.22,3501.02 v 0 c -7.9,3.49 -15.07,8.48 -20.64,15.49 -307.51,386.96 -157.16,988.15 -157.16,988.15 -222.69,-477.51 -1.77,-980.66 177.8,-1003.64" /><path
         id="path106"
         style="fill:#f46f26;fill-opacity:1;fill-rule:nonzero;stroke:none"
         d="m 6370.21,4340.82 c -139.17,-44.39 -265.13,118.32 -186.68,218.98 -46.98,38.83 -167.81,30.8 -167.81,30.8 l 75.21,-55.11 c 0,0 81.06,-289.77 279.28,-194.67" /><path
         id="path108"
         style="fill:#f46f26;fill-opacity:1;fill-rule:nonzero;stroke:none"
         d="m 6722.96,4770.55 c -0.17,0.25 -0.44,0.5 -0.62,0.74 0.37,-0.6 0.75,-1.19 1.12,-1.8 -0.2,0.31 -0.31,0.76 -0.5,1.06" /><path
         id="path110"
         style="fill:#f46f26;fill-opacity:1;fill-rule:nonzero;stroke:none"
         d="m 6287.4,4018.01 c 534.82,388.32 393.72,880.53 -143.95,855.17 -99.18,-41.29 -245.86,-202.22 -245.86,-202.22 0,0 216.51,138.77 295.37,136.36 359.72,-74.45 479.03,-310.09 94.44,-789.31" /><path
         id="path112"
         style="fill:#f46f26;fill-opacity:1;fill-rule:nonzero;stroke:none"
         d="m 4151.71,7159.96 v 0 0 z" /><path
         id="path114"
         style="fill:#f46f26;fill-opacity:1;fill-rule:nonzero;stroke:none"
         d="m 3616.2,7248.57 c 164.1,-351.79 136.02,-529.96 131.79,-551.15 l -11.34,-56.74 -57.86,-1.4 c -2.58,-0.08 -250.39,-9.69 -454.52,-186.12 490.99,-272.32 242.49,-753.75 242.49,-753.75 301.72,378.87 55.69,699.95 -87.73,776.8 288.16,79.59 456.74,65.12 456.74,65.12 0,0 77.41,267.69 -45.58,499.22 397.93,-159.17 513.57,-274.93 513.57,-274.93 0,0 143.76,140.22 130.34,332.81 383.46,-253.22 500.52,-405.83 500.52,-405.83 0,0 178.2,119 242.28,246.66 547.65,-569.15 120.58,-1178.93 882.58,-1966.92 43.19,7.68 84.16,12.29 123.72,15.04 -444.16,461.24 -519.33,871.88 -585.98,1238.09 -64.69,355.49 -116.86,642.21 -511.88,885.41 -13.57,-137.46 -77.92,-225.22 -81.47,-229.95 l -53.56,-71.54 -58.83,67.28 c -2.24,2.55 -213.44,238.99 -590.83,388.62 49.04,-189.53 26.99,-271.67 21.02,-288.56 l -33.85,-95.75 -79.47,63.3 c -3.08,2.46 -273.25,215.47 -592.15,304.29" /><path
         id="path116"
         style="fill:#f46f26;fill-opacity:1;fill-rule:nonzero;stroke:none"
         d="m 3472.35,5759.88 -5.59,-60.47 c 0,0 4.22,22.84 5.59,60.47" /><path
         id="path118"
         style="fill:#f8a7a6;fill-opacity:1;fill-rule:nonzero;stroke:none"
         d="m 5297.48,4754.27 c 35.33,-16.63 73.31,-13.68 105.13,-4.97 -3.4,17.62 -9.44,34.86 -18.85,51.83 -50.22,90.39 -153.91,92.13 -227.42,66.21 -79.45,-28.02 -152.31,-94.88 -189.53,-195.23 195.64,140.04 248.66,120.75 330.67,82.16" /><path
         id="path120"
         style="fill:#351914;fill-opacity:1;fill-rule:nonzero;stroke:none"
         d="m 4659.56,5430.8 c 122.62,65.96 247.02,243.61 315.93,472.38 58.44,194.03 63.25,379.42 23.37,506.25 117.43,-102.61 192.07,-252.98 192.07,-420.8 0,-298.94 -235.99,-543.14 -531.37,-557.83 z m -27.9,1117.11 c 28,0 55.3,-2.75 82.22,-6.76 -32.83,-19.3 -65.66,-46.36 -97.42,-80.33 96.62,-32.01 166.74,-122.05 166.74,-229.37 0,-134.12 -108.64,-242.82 -242.75,-242.82 -53.55,0 -102.65,17.93 -142.84,47.36 -64.74,-242.55 -45.92,-466.4 39.79,-571.11 -212.78,79.18 -365.06,283.75 -365.06,523.75 0,308.38 250.92,559.28 559.32,559.28 z m 335.13,59.68 c -99.71,54.19 -213.89,85.01 -335.13,85.01 -283.21,0 -527.76,-168.21 -639.37,-409.87 -41.38,-89.57 -64.63,-189.14 -64.63,-294.1 0,-362.56 275.56,-661.89 628.25,-699.81 24.89,-2.67 50.14,-4.13 75.75,-4.13 288.3,0 536.54,174.27 645.27,422.93 37.68,86.15 58.7,181.15 58.7,281.01 0,266.94 -149.33,499.63 -368.84,618.96" /><path
         id="path122"
         style="fill:#351914;fill-opacity:1;fill-rule:nonzero;stroke:none"
         d="m 6183.53,4559.8 c -78.45,-100.66 47.51,-263.37 186.68,-218.98 231.42,73.78 -29.64,483.91 -354.49,249.78 0,0 120.83,8.03 167.81,-30.8" /><path
         id="path124"
         style="fill:#351914;fill-opacity:1;fill-rule:nonzero;stroke:none"
         d="m 2511.42,6174.96 c 0,0 36.76,-11.58 75.12,-34.98 26.49,-16.15 53.73,-37.89 70.17,-65.56 -113.95,-276.35 255.49,-607.71 502.09,-302.92 0,0 18.19,-2.11 44.34,-22.85 17.16,-13.61 37.73,-35.16 58.93,-69.67 111.78,355.23 -411,645.64 -750.65,495.98" /><path
         id="path126"
         style="fill:#351914;fill-opacity:1;fill-rule:nonzero;stroke:none"
         d="m 5109.23,2761.55 v -1.5 c 0.21,0.34 0.5,0.65 0.73,1.02 l -0.73,0.48" /><path
         id="path128"
         style="fill:#351914;fill-opacity:1;fill-rule:nonzero;stroke:none"
         d="m 5233.45,2472.57 c -135.09,0 -266.95,-5.63 -394.91,12.02 48.06,34.81 105.86,82.04 162.22,140.9 169.15,-11.05 324.16,-54.87 472.6,-134.53 4.24,-2.29 8.61,-4.04 12.97,-5.96 -84.83,-8.28 -169.32,-12.43 -252.88,-12.43 z m -81.68,1845.22 c -12.82,52.17 -14.38,131.76 -12.45,201.28 2.14,77.79 8.66,142.95 8.66,142.95 0,0 -45.21,-19.66 -84.71,-70.13 -0.12,-0.13 -0.21,-0.25 -0.33,-0.4 -4.02,-5.16 -7.94,-10.75 -11.8,-16.58 -26.98,-40.81 -48.38,-97.84 -45.44,-175.81 -19.41,11.44 -38.75,22.95 -57.88,34.74 -7.63,48.73 -8.49,93.64 -4.36,135.03 3.73,37.58 11.77,72.04 23.35,103.24 37.22,100.35 110.08,167.21 189.53,195.23 73.51,25.92 177.2,24.18 227.42,-66.21 9.41,-16.97 15.45,-34.21 18.85,-51.83 15.95,-82.79 -29.73,-174.3 -93.85,-288.22 -6.61,-11.74 -13.37,-23.84 -20.06,-36.09 -25.95,-47.5 -50.63,-98.04 -59.53,-146.4 -26.03,12.69 -51.8,25.8 -77.4,39.2 z m 44.01,-731.1 c 11.77,19.13 20.47,40.01 26.7,61.7 53.99,-8.4 105.43,-17.38 153.79,-27.48 -60.93,-23.29 -104.69,-74.75 -142.28,-119.29 -13.53,-16 -27.53,-32.57 -41.76,-47.42 -11.67,-12.12 -24.51,-14.87 -30.15,-10.44 -11.53,8.89 -18.99,57.25 33.7,142.93 z m -905.34,-113.31 c -11.22,-57.18 -0.24,-113.99 26.52,-161.88 -237.04,26.97 -512.93,30.03 -745.44,-43.53 -240.36,314.23 -393.8,697.99 -424.01,1115.63 410.62,-476.96 1051.24,-599.42 1601.53,-672.56 -5.79,-18.85 -11.01,-38.46 -15.13,-59.47 -4.48,-22.71 -8.33,-40.01 -11.65,-53.16 -34.34,22.41 -82.87,50.67 -150.52,63.96 -129.57,25.44 -255.79,-59.29 -281.3,-188.99 z m -2.62,3407.6 33.85,95.75 c 5.97,16.89 28.02,99.03 -21.02,288.56 377.39,-149.63 588.59,-386.07 590.83,-388.62 l 58.83,-67.28 53.56,71.54 c 3.55,4.73 67.9,92.49 81.47,229.95 395.02,-243.2 447.19,-529.92 511.88,-885.41 66.65,-366.21 141.82,-776.85 585.98,-1238.09 -39.56,-2.75 -80.53,-7.36 -123.72,-15.04 -128.6,-90.88 -161.89,-301.38 -161.89,-301.38 0,0 146.68,160.93 245.86,202.22 537.67,25.36 678.77,-466.85 143.95,-855.17 -85.98,0 -170.82,5.42 -254.46,15.46 -234.5,28.15 -459.42,93.54 -672.18,184.64 0,0 47.81,125.29 74.1,171.98 33.15,58.89 71.81,127.71 95,201.7 27.75,88.5 33.28,184.38 -19.6,279.62 -39.29,70.68 -101.32,118.85 -174.63,141.22 v 0 c -68.92,21.02 -147.79,19.24 -227.45,-8.84 -96.89,-34.18 -187.29,-106.43 -245.67,-211.5 -39.86,-71.74 -64.93,-158.66 -66.38,-259.79 -308.19,211.35 -577.39,461.69 -796.13,699.28 16.98,-55.88 57.35,-131.76 118.57,-219.14 0.01,0 0.01,-0.01 0.01,-0.02 193.55,-276.19 597.46,-668.44 1146.64,-917.05 l 0.82,-0.78 c 0,0 -0.08,0.35 -0.08,0.44 246.47,-111.48 521.97,-194.08 820.96,-224.1 8.74,-0.87 17.45,-1.86 26.22,-2.64 -88.52,-65.46 -224.17,-148.89 -407.65,-214.03 -145.2,62.9 -307.78,102.02 -481.54,133.56 -2.85,10.1 -6.24,19.99 -10.41,29.52 -26.68,60.93 -77.7,101.62 -143.69,114.59 -100.6,19.86 -185.62,-9.58 -246.8,-80.41 -671.11,103.05 -1432.22,257.36 -2013.6,1194.49 22.87,-86.02 50.47,-165.64 81.49,-240.54 1.17,-3.29 2.11,-6.14 3.49,-9.79 47.9,-126.99 102.38,-260.39 102.38,-260.39 0,-530.37 186.03,-1017.82 495.69,-1401.58 -32.41,-260.84 -30.85,-484.8 -11.42,-673.5 53.31,-517.38 242.18,-767.24 242.18,-767.24 0,0 -4.35,19.9 -11.26,55.31 -39.67,202.94 -164.62,919.44 -49.63,1371.24 351.93,120.81 1198.89,83.65 1198.89,83.65 0,0 -79.51,24.35 -204.96,51.61 -56.18,12.22 -121.57,25.02 -193.2,36.48 -36.71,32.08 -62.32,112.54 -54.32,153.27 10.1,51.34 83.66,85.86 135.1,75.65 49.37,-9.7 82.91,-32.13 112.51,-51.91 33.88,-22.67 76.08,-50.93 126.77,-29.82 57.02,23.67 74.39,91.63 92.74,184.99 37.77,191.74 130.94,173.31 166.09,166.51 19.37,-3.81 31.4,-13.27 39,-30.64 12.14,-27.72 8.51,-69.44 -8.48,-97.02 -102.17,-166.12 -66.45,-281.04 1.04,-333.2 66.34,-51.25 160.14,-40.89 223.07,24.71 17.45,18.19 32.94,36.51 47.91,54.24 57.96,68.63 78.6,86.12 115.45,79.03 3.57,-0.71 7.08,-1.63 10.54,-2.61 27.77,-8.01 51.68,-25.26 67.97,-49.54 18.35,-27.33 24.96,-60.15 18.63,-92.41 -4.84,-24.68 -16.68,-44.04 -32.65,-58.83 -30.87,-28.62 -77.51,-39.85 -121.13,-37.09 -107.67,7.34 -196.59,-40.62 -237.87,-127.83 -36.97,-78.13 -24.66,-170.3 30.66,-229.35 29.49,-31.44 115.17,-97.82 275.22,-34.45 1.71,0.66 4.21,1.83 6.01,2.71 0.19,0.1 0.45,0.22 0.62,0.3 1.58,0.78 39.63,19.32 91,9.22 32.26,-6.33 60.12,-24.87 78.46,-52.17 18.32,-27.31 24.92,-60.11 18.6,-92.39 -2.02,-10.28 -5.5,-20.62 -10.08,-30.61 -14.24,-31.14 -39.42,-59.07 -66.88,-72.08 -26.79,-12.61 -42.22,-4.37 -47.3,-1.64 -40.9,21.93 -82.79,41.25 -125.34,58.52 -98.56,39.98 -201.27,67.75 -307.45,82.72 0.05,0.07 0.12,0.14 0.17,0.23 l -8.9,0.87 c -30.24,4.07 -60.76,7.09 -91.54,9.11 l -66.92,6.63 c -123.31,-150.54 -281.51,-234.62 -283.22,-235.53 -17.74,-9.2 -30.89,-25.39 -36.29,-44.59 -5.41,-19.25 -2.61,-39.89 7.7,-56.98 2.99,-4.94 274.9,-444.31 811.2,-444.31 49.1,0 100.57,3.9 154.1,11.95 12.78,1.91 25.56,3.86 38.59,6.27 0,0 -65.11,5.33 -163,29.6 -147.48,36.57 -369.51,116.25 -556.69,286.22 105.38,-10.47 219.23,-13.16 319.26,-13.16 59.75,0 119.26,2.29 178.44,6.45 h 0.01 c 742.48,52.1 1428.18,424.79 1792.63,962.73 0.07,-0.02 0.12,-0.03 0.17,-0.06 -17.51,-35.35 -36.74,-69.38 -56.86,-102.72 -57.22,-107.1 -130.63,-244.5 -224.88,-420.9 -426.86,-798.93 -766.92,-727.65 -1164.83,-1190.7 -397.93,-463.05 -672.87,-79.6 -1126.47,-318.34 -453.61,-238.76 -834.25,57.88 -1224.93,209.81 -304.63,118.47 -1432.54,-50.64 -1613.42,693.43 -6.58,27.09 -13.61,53.38 -20.88,79.24 48.56,-48.9 115.76,-79.24 189.96,-79.24 147.68,0 267.83,120.14 267.83,267.84 0,92.73 -42.05,156.26 -55.33,174.01 -29.9,47.58 -38.14,89.12 -22.01,111.52 12.48,17.36 40.29,25.13 66.19,18.59 34.76,-8.8 57.24,-39.7 63.3,-86.95 19.54,-152.3 129.45,-258.65 267.25,-258.65 147.69,0 267.85,120.17 267.85,267.87 0,127.62 -96.59,181.39 -174.22,224.53 -18.3,10.17 -37.22,20.72 -54.54,31.82 -14.15,9.08 -19.27,21.15 -16.04,27.6 6.52,12.96 52.51,29.64 146.73,-5.54 75.43,-28.25 165.72,-17.58 229.96,27 28.87,20.04 50.68,45.77 65.02,75.4 12.83,26.47 19.74,56 19.74,87.71 0,115.21 -56.91,199.2 -157.93,242.43 -50.3,21.54 -111.34,33.15 -182.11,33.15 -23.15,0 -40.87,0.49 -54.41,1.19 15.38,38.01 33.77,91.06 33.77,160.02 0,132.12 -107.48,239.59 -239.61,239.59 -73.03,0 -139.24,-33.57 -183.46,-86.35 -0.54,-0.63 -1.16,-1.21 -1.7,-1.85 -48.54,52.31 -86.12,163.62 -114.52,286.92 235.16,257.73 398.69,673.35 444.12,797.12 8.43,22.97 12.79,35.9 12.79,35.9 0,0 -259.93,-424.03 -487.6,-676.79 -31.26,185.59 -44.04,354.83 -44.04,354.83 0,0 -150.35,-601.19 157.16,-988.15 5.57,-7.01 12.74,-12 20.64,-15.49 16.89,-7.47 37.51,-7.35 55.48,-0.57 26.31,9.9 44.53,34.16 46.68,62.19 2.89,37.65 28.04,68.86 61.77,81.45 10.25,3.83 21.22,6.1 32.68,6.1 52.32,0 94.9,-42.57 94.9,-94.9 0,-29.64 -5.44,-54.66 -12.67,-76.99 -5.04,-15.6 -10.95,-29.93 -16.59,-43.44 -15.72,-37.62 -35.27,-84.44 -4.85,-130.11 34.23,-51.42 104.27,-55.38 199.46,-55.38 31.14,0 57.29,-2.51 79.29,-6.86 116.01,-22.88 116.05,-96.82 116.05,-124.01 0,-19.76 -6.95,-33.38 -22.54,-44.2 -12.76,-8.83 -29.92,-14.26 -47.7,-15.96 -16.9,-1.64 -34.37,0.08 -49.13,5.6 -182.68,68.23 -288.61,11.06 -326.78,-65.28 -37.52,-74.95 -9.23,-164.99 67.27,-214.07 4.53,-2.92 8.99,-5.44 13.5,-8.19 16.55,-10.09 32.94,-19.47 48.87,-28.33 53.94,-30 80.86,-47.47 92.45,-67.54 5.3,-9.16 7.4,-18.87 7.4,-30.55 0,-67.93 -55.24,-123.18 -123.14,-123.18 -73.74,0 -115.27,66.47 -123.73,132.39 -1.58,12.3 -3.9,24.19 -6.78,35.69 -5.9,23.56 -14.48,45.3 -25.43,64.99 -0.02,0.05 -0.06,0.12 -0.09,0.17 -30.16,54.2 -78.3,92.56 -138.96,107.95 -83.72,21.13 -171.83,-8.63 -219.15,-74.29 -25.19,-34.95 -73.73,-131.92 19.18,-276.7 1.53,-2.37 3.18,-4.64 4.98,-6.8 0.08,-0.12 2.81,-3.98 6.35,-10.38 7.66,-13.83 19.55,-40.81 19.55,-76.23 0,-45.94 -25.36,-86.04 -62.78,-107.2 -17.87,-10.08 -38.43,-15.93 -60.37,-15.93 -5.52,0 -10.93,0.51 -16.27,1.2 -60.21,8 -106.87,59.58 -106.87,121.93 0,69.44 9.18,148.92 18.91,233.05 42.5,367.43 100.44,867.9 -462.39,1448.38 10.45,24.16 22.27,50.29 33.62,78.89 271.09,682.07 866.33,1143.88 1019.69,1254.53 23.48,16.94 36.71,25.74 36.71,25.74 -6.5,-1.78 -13.08,-3.87 -19.61,-5.8 -0.01,-0.01 -0.01,-0.01 -0.02,-0.01 -422.01,-124.69 -911.6,-566.55 -1222.36,-1339.41 -11.27,-28.01 -6.49,-59.9 14.97,-81.17 550.32,-546 497.84,-999.87 455.65,-1364.53 -8.55,-73.89 -16.34,-144.1 -18.79,-210.67 -206.9,521.95 -520.58,769.52 -457.73,1119.61 74.02,412.39 -233.21,926.08 41.73,1229.95 274.92,303.87 202.58,672.86 513.68,837.77 311.11,164.91 289.41,81.08 499.23,435.61 123.79,209.18 237.56,277.26 405.12,299.44 84.99,11.25 183.96,10.73 304.98,10.76 l 70.3,-29.75 c 290.16,-122.83 373.33,-340.49 393.82,-493.63 5.9,-44.11 6.68,-82.9 5.59,-112.47 -1.37,-37.63 -5.59,-60.47 -5.59,-60.47 0,0 248.5,481.43 -242.49,753.75 204.13,176.43 451.94,186.04 454.52,186.12 l 57.86,1.4 11.34,56.74 c 4.23,21.19 32.31,199.36 -131.79,551.15 318.9,-88.82 589.07,-301.83 592.15,-304.29 z M 5690.68,2513.43 c 58.72,42.26 103.17,109.28 117.35,181.54 28.46,144.89 -66.27,285.95 -211.19,314.4 -91.05,17.84 -161.48,-11.16 -181.43,-20.74 -52.39,-20.2 -94.78,-20.23 -113.66,-0.1 -14.59,15.59 -16.91,44.39 -5.49,68.49 15.34,32.41 50.11,48.51 97.54,45.4 153.29,-10.29 278.77,77.21 305.31,212.4 13.75,70.22 -0.61,141.62 -40.5,200.99 -4.19,6.24 -8.73,12.12 -13.37,17.94 17.13,-9.07 33.12,-18.71 47.85,-29.02 0,0 384.21,120.79 640.13,353.5 421.74,292.14 533.43,674.19 390.24,911.26 -0.37,0.61 -0.75,1.2 -1.12,1.8 -61.85,101.17 -170.06,175.82 -321.12,205.11 -516.1,476.81 -593.51,900.49 -661.65,1274.98 -71.17,391.26 -138.42,760.83 -697.16,1049.64 l -128.47,66.4 23.87,-142.62 c 12.14,-72.44 1.87,-133.59 -12.44,-178.08 -114.65,104.9 -357.88,294.43 -714.9,403.36 l -137.02,41.8 47.67,-135.08 c 32.54,-92.19 49.5,-162.6 57.99,-214.5 -8.71,5.72 -17.89,11.63 -27.4,17.66 v 0 c -149.16,94.63 -394.79,225.54 -658.01,261.9 l -141.75,19.57 68.27,-125.77 c 36.25,-66.77 65.41,-127.63 89.1,-182.95 -405.27,152.69 -847.1,152.76 -847.1,152.76 0,0 114.3,-237.63 133.72,-321.74 -373.18,105.71 -754.58,11.48 -754.58,11.48 0,0 165.81,-218.12 210.48,-299.35 -475.39,75.21 -734.31,-122.23 -734.31,-122.23 0,0 147.97,-63.01 223.61,-157.65 -297.52,-54.89 -522.27,-229.57 -522.27,-229.57 l 188.15,-166.65 -390.67,-235.49 -9.3,-15.81 C 694.934,5217.88 529.961,4610.35 530,3991.52 530,2078.14 2086.64,521.469 4000,521.469 5913.36,521.469 7470,2078.14 7470,3991.52 7137.48,3097.05 6419.93,2643.87 5690.68,2513.43" /></g></g></svg>