<?xml version="1.0" encoding="UTF-8" standalone="no"?>
<svg
   xmlns:dc="http://purl.org/dc/elements/1.1/"
   xmlns:cc="http://creativecommons.org/ns#"
   xmlns:rdf="http://www.w3.org/1999/02/22-rdf-syntax-ns#"
   xmlns:svg="http://www.w3.org/2000/svg"
   xmlns="http://www.w3.org/2000/svg"
   viewBox="0 0 2133.3333 800"
   height="800"
   width="2133.3333"
   xml:space="preserve"
   id="svg2"
   version="1.1"><metadata
     id="metadata8"><rdf:RDF><cc:Work
         rdf:about=""><dc:format>image/svg+xml</dc:format><dc:type
           rdf:resource="http://purl.org/dc/dcmitype/StillImage" /></cc:Work></rdf:RDF></metadata><defs
     id="defs6" /><g
     transform="matrix(1.3333333,0,0,-1.3333333,0,800)"
     id="g10"><g
       transform="scale(0.1)"
       id="g12"><path
         id="path14"
         style="fill:#f2521c;fill-opacity:1;fill-rule:nonzero;stroke:none"
         d="m 2104.31,3958.81 c 0.59,16.11 0.17,37.3 -3.07,61.37 v -94.42 l 3.07,33.05" /><path
         id="path16"
         style="fill:#f2521c;fill-opacity:1;fill-rule:nonzero;stroke:none"
         d="m 2465.86,1953.38 c 51.52,0 93.28,-41.77 93.28,-93.24 0,-51.53 -41.76,-93.27 -93.28,-93.27 -51.51,0 -93.25,41.74 -93.25,93.27 0,51.47 41.74,93.24 93.25,93.24 z m 234.41,-339.73 c 0,-49.43 -40.03,-89.5 -89.5,-89.5 -49.37,0 -89.46,40.07 -89.46,89.5 0,49.45 40.09,89.47 89.46,89.47 49.47,0 89.5,-40.02 89.5,-89.47 z m 243.07,1270.06 c 22.52,0 40.77,-18.23 40.77,-40.77 0,-22.52 -18.25,-40.77 -40.77,-40.77 -22.5,0 -40.76,18.25 -40.76,40.77 0,22.54 18.26,40.77 40.76,40.77 z M 2812.27,1733.55 c 33.08,0 59.96,-26.88 59.96,-59.97 0,-33.1 -26.88,-59.93 -59.96,-59.93 -33.09,0 -59.95,26.83 -59.95,59.93 0,33.09 26.86,59.97 59.95,59.97 z m -957.98,735.41 c -7.83,-16.17 -19.72,-30.22 -35.49,-41.18 -35.07,-24.3 -84.35,-30.14 -125.54,-14.69 -51.43,19.17 -76.54,10.07 -80.11,2.99 -1.74,-3.5 1.05,-10.12 8.76,-15.06 9.46,-6.06 19.8,-11.83 29.79,-17.38 42.37,-23.55 95.11,-52.9 95.11,-122.56 0,-80.63 -65.6,-146.26 -146.22,-146.26 -75.24,0 -135.24,58.08 -145.9,141.22 -3.32,25.78 -15.59,42.69 -34.55,47.48 -14.14,3.55 -29.32,-0.67 -36.14,-10.16 -8.8,-12.23 -4.31,-34.9 12.02,-60.89 7.25,-9.7 30.2,-44.36 30.2,-94.99 0,-80.61 -65.59,-146.23 -146.2,-146.23 -40.52,0 -77.19,16.58 -103.71,43.26 3.96,-14.1 7.8,-28.47 11.4,-43.26 98.75,-406.18 714.48,-313.85 880.78,-378.51 213.27,-82.95 421.07,-244.87 668.68,-114.56 247.62,130.37 397.71,-79.01 614.96,173.77 217.22,252.82 402.85,213.89 635.88,650.03 51.45,96.3 91.52,171.29 122.76,229.78 -214.67,-355.92 -688.92,-504.1 -947.74,-469.51 -55.3,-41.23 -57.46,-113.36 32.28,-152.54 53.44,-13.23 88.99,-16.14 88.99,-16.14 -7.11,-1.33 -14.09,-2.4 -21.06,-3.43 0.04,-0.02 0.06,-0.02 0.12,-0.02 -266.48,-83.11 -594.53,98.84 -591.9,333.22 104.54,37.19 207.5,156.96 230.32,184.69 v 0 0 c 3.04,3.68 4.69,5.8 4.69,5.8 0,0 1.95,-4.9 4.21,-12.69 84.76,-63.99 255.02,-145.22 255.02,-145.22 0,0 -0.07,-0.08 -0.11,-0.08 23.23,-9.42 46.1,-19.97 68.42,-31.96 2.78,-1.46 11.21,-5.95 25.83,0.9 14.99,7.09 28.73,22.35 36.51,39.34 -9.86,-5.23 -21.06,-8.2 -32.99,-8.2 -38.89,0 -70.43,31.52 -70.43,70.41 0,10.08 2.13,19.6 5.92,28.22 -0.99,-0.47 -2.37,-1.11 -3.27,-1.48 -87.4,-34.58 -134.16,1.66 -150.26,18.82 -30.2,32.25 -36.92,82.56 -16.74,125.2 22.53,47.61 71.09,73.79 129.87,69.79 23.8,-1.49 49.26,4.64 66.12,20.23 -5.68,-1.9 -11.76,-2.98 -18.08,-2.98 -31.4,0 -56.88,25.46 -56.88,56.89 0,27.48 19.55,50.44 45.51,55.72 -1.9,0.51 -3.79,1.05 -5.75,1.42 -20.13,3.85 -31.38,-5.68 -63.04,-43.12 -8.17,-9.72 -16.61,-19.73 -26.14,-29.65 -34.35,-35.79 -85.57,-41.43 -121.78,-13.47 -36.85,28.46 -56.34,91.2 -0.58,181.88 9.28,15.05 11.27,37.84 4.63,52.98 -4.14,9.48 -10.7,14.62 -21.29,16.72 -19.18,3.7 -70.06,13.78 -90.67,-90.91 -10,-50.94 -19.48,-88.07 -50.62,-100.97 -27.67,-11.54 -50.71,3.91 -69.2,16.27 -98.75,-30.85 0,-116.52 0,-116.52 h -0.05 c 68.47,-14.9 111.88,-28.19 111.88,-28.19 -151.24,-25.16 -593.92,-111.79 -593.92,-111.79 0,0 -26.08,-359.91 -33.45,-682.46 3.77,-19.32 6.15,-30.18 6.15,-30.18 -118.97,123.58 -170.08,301.78 -183.87,459.12 -80.11,69.53 -148.16,163.14 -203.13,271.09" /><path
         id="path18"
         style="fill:#f2521c;fill-opacity:1;fill-rule:nonzero;stroke:none"
         d="m 3163.13,2082.3 h -0.04 0.04" /><path
         id="path20"
         style="fill:#f2521c;fill-opacity:1;fill-rule:nonzero;stroke:none"
         d="m 3121.48,3867.95 c -11.4,28.2 -22.63,48.23 -32.05,62.3 -59.35,-135.75 -194.86,-230.86 -352.26,-230.86 -13.97,0 -27.76,0.8 -41.35,2.24 l -8.31,-2.24 c -403.11,0 -424.17,456.19 -353.07,592.52 l 53.69,-47.66 h 0.01 c 60.92,131.87 194.43,223.7 349.03,223.7 66.21,0 128.52,-16.82 182.96,-46.4 v 0 c 201.35,-91.47 293.75,-300.82 201.35,-553.6 z m 564.79,-683.83 c -108.22,-51.93 -152.48,106.26 -152.48,106.26 l -41.06,30.09 c 177.35,127.81 319.87,-96.07 193.54,-136.35 z m -1696.76,730.51 c -11.58,18.82 -22.81,30.58 -32.17,38.03 -154.78,-236.01 -422.09,22.2 -336.6,213.62 -20.95,12.76 -41.01,19.09 -41.01,19.09 185.41,81.68 470.82,-76.83 409.78,-270.74 z m -470.99,-326.11 c -33.11,0 -59.98,26.81 -59.98,59.9 0,33.14 26.87,59.98 59.98,59.98 33.1,0 59.95,-26.84 59.95,-59.98 0,-33.09 -26.85,-59.9 -59.95,-59.9 z m -59.98,-156.61 c -33.11,0 -59.93,26.84 -59.93,59.91 0,33.12 26.82,59.99 59.93,59.99 33.13,0 59.98,-26.87 59.98,-59.99 0,-33.07 -26.85,-59.91 -59.98,-59.91 z m 1444.04,1036.04 c 0,0 -63.93,83.3 -273.24,221.56 7.32,-105.14 -71.17,-181.7 -71.17,-181.7 0,0 -63.12,63.2 -280.36,150.09 67.15,-126.39 24.89,-272.53 24.89,-272.53 0,0 -92.04,7.9 -249.32,-35.55 78.27,-41.93 212.58,-217.21 47.86,-424.06 -56.45,194.97 -167.04,325.31 -419.85,374.26 -91.47,-12.1 -153.57,-49.3 -221.16,-163.44 -114.53,-193.57 -102.69,-147.8 -272.52,-237.83 -169.84,-90.02 -130.34,-291.46 -280.425,-457.33 -150.078,-165.89 17.637,-446.32 -22.773,-671.43 -34.309,-191.12 136.938,-326.27 249.878,-611.2 1.33,36.31 5.58,74.66 10.26,114.98 23.03,199.06 51.68,446.85 -248.752,744.93 -11.718,11.6 -14.316,28.99 -8.164,44.3 169.636,421.89 436.916,663.13 667.276,731.19 h 0.04 c 0,0 -0.02,0 -0.03,0 3.58,1.05 7.17,2.2 10.72,3.15 0,0 -7.22,-4.78 -20.04,-14.05 -255.42,-297.95 -423.65,-445.42 -517.28,-734.17 118.19,-123.47 244.86,-323.88 244.86,-658.26 -1.03,-57.37 -53.03,-218.31 -2.15,-319.94 2.91,-0.37 5.86,-0.65 8.89,-0.65 11.96,0 23.19,3.19 32.95,8.68 -0.93,-0.04 -1.84,-0.14 -2.77,-0.14 -29.63,0 -53.64,24.02 -53.64,53.63 0,29.61 24.01,53.63 53.64,53.63 9.59,0 18.57,-2.54 26.36,-6.97 -1.92,3.52 -3.42,5.61 -3.45,5.65 -0.98,1.19 -1.9,2.44 -2.72,3.74 -50.72,79.01 -24.24,131.96 -10.49,151.04 25.84,35.84 73.95,52.07 119.65,40.55 33.11,-8.41 59.4,-29.36 75.86,-58.94 v 0 c 0.02,-0.04 0.04,-0.04 0.04,-0.07 5.98,-10.77 10.66,-22.63 13.89,-35.48 16.56,-32.78 38.3,-49.38 61.38,-53.38 -19.9,7.81 -34,27.16 -34,49.88 0,21.07 12.21,39.23 29.9,48.01 -2.45,1.5 -4.9,2.86 -7.38,4.45 -41.76,26.81 -57.2,75.97 -36.71,116.88 20.82,41.65 78.66,72.89 178.39,35.61 8.06,-3 17.59,-3.94 26.81,-3.04 -28.62,1.47 -51.39,25.05 -51.39,54.06 0,19.75 10.59,37.02 26.37,46.47 -12,2.39 -26.27,3.76 -43.26,3.76 -51.97,0 -90.2,2.16 -108.9,30.25 -16.6,24.93 -5.93,50.48 2.65,71.01 3.09,7.36 6.31,15.21 9.07,23.71 -8.05,-4.56 -17.33,-7.19 -27.22,-7.19 -30.56,0 -55.32,24.76 -55.32,55.32 0,17.03 7.71,32.22 19.8,42.37 -18.42,-6.87 -32.15,-23.9 -33.73,-44.43 -1.17,-15.35 -11.1,-28.6 -25.47,-33.99 -9.81,-3.7 -21.07,-3.76 -30.29,0.31 v 0 c -98.03,12.53 -218.63,287.24 -97.05,547.91 61.41,-77.01 290.21,175.74 290.21,175.74 0,0 -2.38,-7.05 -6.98,-19.58 -31.71,-220.17 -200.75,-509.63 -200.75,-509.63 l 21.75,-81.16 c 24.15,28.82 60.29,47.13 100.16,47.13 72.11,0 130.8,-58.66 130.8,-130.79 0,-37.61 -10.05,-66.6 -18.44,-87.34 7.39,-0.39 17.07,-0.66 29.71,-0.66 38.64,0 71.96,-6.33 99.42,-18.08 -101.65,298.89 -119.14,655.09 -36.45,919.99 347.13,-353.83 649.93,-533.21 1048.86,-567.46 225.26,80.55 402.86,-107.4 604.27,-107.4 59.55,0 107.32,18.57 136.07,33.39 -163.22,16.37 -313.61,61.47 -448.18,122.33 0,-0.06 0.05,-0.24 0.05,-0.24 l -0.44,0.41 c -299.81,135.74 -520.32,349.87 -625.96,500.64 v 0 0.02 c -33.42,47.68 -55.47,89.1 -64.74,119.62 226.46,-136.91 359.82,-292.93 470.84,-239.92 0,0 0,0 0.01,0 31.88,57.36 81.21,96.79 134.12,115.46 43.48,15.35 86.53,16.3 124.16,4.82 v 0 0 c 40.01,-12.2 73.88,-38.52 95.33,-77.09 28.87,-52 25.84,-104.32 10.7,-152.63 0.72,-1.98 83.58,-227.44 274.64,-304.8 45.64,-5.49 91.97,-8.45 138.9,-8.45 209.96,261.62 144.81,390.24 -51.56,430.91 -43.04,1.3 -161.25,-74.45 -161.25,-74.45 0,0 18.18,114.91 88.38,164.52 -415.97,430.18 -182.83,763.05 -481.79,1073.75 -34.99,-69.7 -132.25,-134.66 -132.25,-134.66" /><path
         id="path22"
         style="fill:#f2521c;fill-opacity:1;fill-rule:nonzero;stroke:none"
         d="m 1667.81,2261.08 c 0,6.38 -1.15,11.67 -4.04,16.66 -0.88,-11.03 -5.09,-21.16 -11.66,-29.28 5.38,3.67 10.62,7.89 15.7,12.62" /><path
         id="path24"
         style="fill:#351914;fill-opacity:1;fill-rule:nonzero;stroke:none"
         d="m 2521.31,1613.65 c 0,-49.43 40.09,-89.5 89.46,-89.5 49.47,0 89.5,40.07 89.5,89.5 0,49.45 -40.03,89.47 -89.5,89.47 -49.37,0 -89.46,-40.02 -89.46,-89.47" /><path
         id="path26"
         style="fill:#351914;fill-opacity:1;fill-rule:nonzero;stroke:none"
         d="m 2812.27,1613.65 c 33.08,0 59.96,26.83 59.96,59.93 0,33.09 -26.88,59.97 -59.96,59.97 -33.09,0 -59.95,-26.88 -59.95,-59.97 0,-33.1 26.86,-59.93 59.95,-59.93" /><path
         id="path28"
         style="fill:#351914;fill-opacity:1;fill-rule:nonzero;stroke:none"
         d="m 2465.86,1766.87 c 51.52,0 93.28,41.74 93.28,93.27 0,51.47 -41.76,93.24 -93.28,93.24 -51.51,0 -93.25,-41.77 -93.25,-93.24 0,-51.53 41.74,-93.27 93.25,-93.27" /><path
         id="path30"
         style="fill:#351914;fill-opacity:1;fill-rule:nonzero;stroke:none"
         d="m 1518.52,3708.4 c -33.11,0 -59.98,-26.84 -59.98,-59.98 0,-33.09 26.87,-59.9 59.98,-59.9 33.1,0 59.95,26.81 59.95,59.9 0,33.14 -26.85,59.98 -59.95,59.98" /><path
         id="path32"
         style="fill:#351914;fill-opacity:1;fill-rule:nonzero;stroke:none"
         d="m 1458.54,3551.81 c -33.11,0 -59.93,-26.87 -59.93,-59.99 0,-33.07 26.82,-59.91 59.93,-59.91 33.13,0 59.98,26.84 59.98,59.91 0,33.12 -26.85,59.99 -59.98,59.99" /><path
         id="path34"
         style="fill:#ffffff;fill-opacity:1;fill-rule:nonzero;stroke:none"
         d="m 2631.13,3797.73 c -46.79,57.18 -57.07,179.37 -21.72,311.77 21.94,-16.05 48.73,-25.86 77.97,-25.86 73.22,0 132.52,59.36 132.52,132.56 0,58.59 -38.28,107.76 -91.01,125.23 17.32,18.52 35.27,33.32 53.17,43.86 -14.7,2.2 -29.59,3.67 -44.89,3.67 -168.36,0 -305.33,-136.95 -305.33,-305.32 0,-130.98 83.12,-242.66 199.29,-285.91" /><path
         id="path36"
         style="fill:#ffffff;fill-opacity:1;fill-rule:nonzero;stroke:none"
         d="m 2937.64,4313.38 c 21.75,-69.25 19.14,-170.46 -12.76,-276.35 -37.61,-124.89 -105.54,-221.87 -172.48,-257.9 161.27,8.02 290.09,141.34 290.09,304.51 0,91.63 -40.75,173.72 -104.85,229.74" /><path
         id="path38"
         style="fill:#f78f7e;fill-opacity:1;fill-rule:nonzero;stroke:none"
         d="m 3121.48,3550.85 v 0 0 z" /><path
         id="path40"
         style="fill:#f78f7e;fill-opacity:1;fill-rule:nonzero;stroke:none"
         d="m 3106.82,3249.77 c 35,62.18 59.93,112.11 51.23,157.33 -17.39,-4.73 -38.11,-6.37 -57.4,2.7 -44.76,21.08 -73.72,31.62 -180.51,-44.84 -6.31,-17.03 -10.73,-35.83 -12.75,-56.35 30.91,-18.56 49.73,-6.63 58.78,3.28 2.12,3.21 4.25,6.24 6.45,9.05 0.08,0.15 0.13,0.27 0.13,0.27 0,0 0.04,-0.04 0.04,-0.06 21.57,27.56 46.25,38.32 46.25,38.32 0,0 -3.56,-35.61 -4.72,-78.04 22.96,-19.63 52.63,-41.19 81.54,-51.38 3.65,6.67 7.34,13.29 10.96,19.72" /><path
         id="path42"
         style="fill:#ee431e;fill-opacity:1;fill-rule:nonzero;stroke:none"
         d="m 2457.09,3550.85 v 0.02 -0.02" /><path
         id="path44"
         style="fill:#ee431e;fill-opacity:1;fill-rule:nonzero;stroke:none"
         d="m 2392.35,3670.49 c 119.41,-129.7 266.38,-266.37 434.61,-381.74 0.79,55.23 14.47,102.67 36.24,141.82 -0.01,0 -0.01,0 -0.01,0 -111.02,-53.01 -244.38,103.01 -470.84,239.92" /><path
         id="path46"
         style="fill:#ee431e;fill-opacity:1;fill-rule:nonzero;stroke:none"
         d="m 3227.51,3321.13 c -12.67,-40.42 -33.76,-77.97 -51.86,-110.11 -14.36,-25.52 -40.45,-93.91 -40.45,-93.91 116.15,-49.73 238.94,-85.43 366.95,-100.78 -191.06,77.36 -273.92,302.82 -274.64,304.8" /><path
         id="path48"
         style="fill:#ee431e;fill-opacity:1;fill-rule:nonzero;stroke:none"
         d="m 2791.28,3001.72 c -398.93,34.25 -701.73,213.63 -1048.86,567.46 317.39,-511.59 732.87,-595.8 1099.24,-652.07 33.4,38.65 79.81,54.73 134.73,43.89 36.03,-7.08 63.86,-29.29 78.43,-62.55 2.3,-5.21 4.14,-10.6 5.69,-16.11 94.86,-17.21 183.61,-38.57 262.87,-72.92 100.17,35.56 174.22,81.13 222.56,116.86 -4.81,0.42 -9.57,0.95 -14.32,1.43 -28.75,-14.82 -76.52,-33.39 -136.07,-33.39 -201.41,0 -379.01,187.95 -604.27,107.4" /><path
         id="path50"
         style="fill:#ee431e;fill-opacity:1;fill-rule:nonzero;stroke:none"
         d="m 2101.24,3925.76 v 94.42 c -11.17,83.59 -56.57,202.42 -214.97,269.47 l -38.38,16.25 c -66.07,-0.04 -120.1,0.25 -166.5,-5.88 252.81,-48.95 363.4,-179.29 419.85,-374.26" /><path
         id="path52"
         style="fill:#ee431e;fill-opacity:1;fill-rule:nonzero;stroke:none"
         d="m 2920.13,4421.55 c 119.82,-65.12 201.35,-192.16 201.35,-337.91 0,-54.5 -11.48,-106.36 -32.05,-153.39 9.42,-14.07 20.65,-34.1 32.05,-62.3 92.4,252.78 0,462.13 -201.35,553.6 v 0" /><path
         id="path54"
         style="fill:#b65e56;fill-opacity:1;fill-rule:nonzero;stroke:none"
         d="m 2972.62,3320.94 c 0.06,0.08 0.11,0.15 0.17,0.21 0,0.02 -0.04,0.06 -0.04,0.06 0,0 -0.05,-0.12 -0.13,-0.27" /><path
         id="path56"
         style="fill:#b65e56;fill-opacity:1;fill-rule:nonzero;stroke:none"
         d="m 3014.32,3281.43 c -1.06,-37.99 -0.22,-81.39 6.78,-109.89 13.98,-7.31 28.06,-14.5 42.26,-21.4 4.86,26.4 18.33,53.96 32.5,79.91 -28.91,10.19 -58.58,31.75 -81.54,51.38" /><path
         id="path58"
         style="fill:#b65e56;fill-opacity:1;fill-rule:nonzero;stroke:none"
         d="m 2907.39,3308.61 c -2.27,-22.6 -1.78,-47.13 2.4,-73.74 10.42,-6.41 20.99,-12.72 31.6,-18.95 -1.62,42.57 10.06,73.69 24.78,95.97 -9.05,-9.91 -27.87,-21.84 -58.78,-3.28" /><path
         id="path60"
         style="fill:#ee431e;fill-opacity:1;fill-rule:nonzero;stroke:none"
         d="m 1273.28,2390.86 c 0,334.38 -126.67,534.79 -244.86,658.26 93.63,288.75 261.86,436.22 517.28,734.17 -83.72,-60.39 -408.67,-312.49 -556.657,-684.85 -6.191,-15.61 -12.648,-29.88 -18.34,-43.07 307.247,-316.87 275.607,-590.09 252.407,-790.66 -5.32,-45.92 -10.33,-89.3 -10.33,-127.23 0,-34.02 25.48,-62.17 58.35,-66.56 -50.88,101.63 1.12,262.57 2.15,319.94" /><path
         id="path62"
         style="fill:#ee431e;fill-opacity:1;fill-rule:nonzero;stroke:none"
         d="m 1555.01,3794.19 c 0.01,0 0.01,0 0.01,0 0.01,0 0.03,0 0.03,0 h -0.04" /><path
         id="path64"
         style="fill:#ee431e;fill-opacity:1;fill-rule:nonzero;stroke:none"
         d="m 1332.99,3273.56 c 0,0 6.97,-92.4 24.03,-193.71 124.29,137.98 266.18,369.45 266.18,369.45 0,0 -228.8,-252.75 -290.21,-175.74" /><path
         id="path66"
         style="fill:#ee431e;fill-opacity:1;fill-rule:nonzero;stroke:none"
         d="m 2750.68,2707.89 c -16.15,10.8 -34.47,23.04 -61.44,28.33 -28.05,5.59 -68.22,-13.25 -73.73,-41.32 -4.37,-22.2 9.62,-66.15 29.65,-83.65 39.1,-6.24 74.8,-13.23 105.47,-19.88 h 0.05 c 0,0 -98.75,85.67 0,116.52" /><path
         id="path68"
         style="fill:#ee431e;fill-opacity:1;fill-rule:nonzero;stroke:none"
         d="m 2241.29,1738.75 c 0,0 -103.13,136.39 -132.22,418.83 -17.74,12.34 -34.95,25.81 -51.65,40.29 13.79,-157.34 64.9,-335.54 183.87,-459.12" /><path
         id="path70"
         style="fill:#ee431e;fill-opacity:1;fill-rule:nonzero;stroke:none"
         d="m 3163.03,2082.25 v 0 l 0.06,0.05 h 0.02 c -32.31,-2.28 -64.79,-3.52 -97.43,-3.52 -54.59,0 -116.75,1.45 -174.27,7.18 102.16,-92.8 223.39,-136.27 303.9,-156.25 -89.74,39.18 -87.58,111.31 -32.28,152.54" /><path
         id="path72"
         style="fill:#ee431e;fill-opacity:1;fill-rule:nonzero;stroke:none"
         d="m 2997.87,2321.98 0.42,-0.25 c -0.13,-0.2 -0.28,-0.39 -0.42,-0.59 z m -87.19,99.16 c -2.26,7.79 -4.21,12.69 -4.21,12.69 0,0 -1.65,-2.12 -4.69,-5.8 v 0 0 c -22.82,-27.73 -125.78,-147.5 -230.32,-184.69 -2.63,-234.38 325.42,-416.33 591.9,-333.22 -0.06,0 -0.08,0 -0.12,0.02 -29.25,-4.4 -57.32,-6.53 -84.14,-6.53 -292.75,0 -441.19,239.87 -442.83,242.54 -5.64,9.35 -7.17,20.6 -4.21,31.13 2.94,10.47 10.13,19.3 19.82,24.32 0.93,0.49 87.3,46.41 154.59,128.6 l 36.55,-3.62 c 16.8,-1.13 33.46,-2.77 49.98,-4.99 l 4.85,-0.49 c -0.02,-0.03 -0.07,-0.06 -0.11,-0.12 57.98,-8.15 114.06,-23.3 167.85,-45.14 0.04,0 0.11,0.08 0.11,0.08 0,0 -170.26,81.23 -255.02,145.22" /><path
         id="path74"
         style="fill:#ee431e;fill-opacity:1;fill-rule:nonzero;stroke:none"
         d="m 1610.36,2228.42 c -6.93,0 -13.55,1.37 -19.64,3.79 -23.08,4 -44.82,20.6 -61.38,53.38 1.56,-6.29 2.83,-12.78 3.7,-19.49 4.62,-35.98 27.29,-72.26 67.55,-72.26 37.05,0 67.22,30.14 67.22,67.24 -5.08,-4.73 -10.32,-8.95 -15.7,-12.62 -9.82,-12.21 -24.86,-20.04 -41.75,-20.04" /><path
         id="path76"
         style="fill:#ee431e;fill-opacity:1;fill-rule:nonzero;stroke:none"
         d="m 1515.41,2321.14 c 0,-0.04 0.02,-0.04 0.04,-0.07 0,0.03 -0.02,0.03 -0.04,0.07 v 0" /><path
         id="path78"
         style="fill:#ee431e;fill-opacity:1;fill-rule:nonzero;stroke:none"
         d="m 1616.22,3429.72 c -24.8,-67.56 -114.07,-294.48 -242.45,-435.15 15.51,-67.32 36.02,-128.09 62.53,-156.64 0.29,0.33 0.62,0.66 0.92,1 l -21.75,81.16 c 0,0 169.04,289.46 200.75,509.63" /><path
         id="path80"
         style="fill:#f46f26;fill-opacity:1;fill-rule:nonzero;stroke:none"
         d="m 1778.87,2649.19 c 55.13,-23.59 86.21,-69.44 86.21,-132.37 0,-17.28 -3.77,-33.41 -10.79,-47.86 54.97,-107.95 123.02,-201.56 203.13,-271.09 16.7,-14.48 33.91,-27.95 51.65,-40.29 -10.6,103.04 -11.45,225.3 6.24,367.65 -169.05,209.5 -270.6,475.63 -270.6,765.15 0,0 -29.75,72.83 -55.89,142.14 -0.76,2 -1.28,3.55 -1.91,5.35 -16.95,40.87 -32,84.36 -44.49,131.31 -82.69,-264.9 -65.2,-621.1 36.45,-919.99" /><path
         id="path82"
         style="fill:#f46f26;fill-opacity:1;fill-rule:nonzero;stroke:none"
         d="m 1659.04,4130.49 c -8.97,15.1 -23.84,26.97 -38.3,35.79 -85.49,-191.42 181.82,-449.63 336.6,-213.62 -14.27,11.32 -24.21,12.46 -24.21,12.46 -134.61,-166.37 -336.29,14.51 -274.09,165.37" /><path
         id="path84"
         style="fill:#f46f26;fill-opacity:1;fill-rule:nonzero;stroke:none"
         d="m 2352.86,4083.64 c 0,57.32 12.69,111.67 35.28,160.61 h -0.01 l -53.69,47.66 c -71.1,-136.33 -50.04,-592.52 353.07,-592.52 l 8.31,2.24 c -192.52,20.7 -342.96,184.11 -342.96,382.01" /><path
         id="path86"
         style="fill:#f46f26;fill-opacity:1;fill-rule:nonzero;stroke:none"
         d="m 2862.51,2563.18 c 0,0 -462.35,20.28 -654.46,-45.66 -62.79,-246.62 5.43,-637.81 27.09,-748.59 7.37,322.55 33.45,682.46 33.45,682.46 0,0 442.68,86.63 593.92,111.79" /><path
         id="path88"
         style="fill:#f46f26;fill-opacity:1;fill-rule:nonzero;stroke:none"
         d="m 3163.03,2082.25 v 0 c 258.82,-34.59 733.07,113.59 947.74,469.51 10.99,18.17 21.48,36.78 31.05,56.05 -0.04,0.06 -0.06,0.06 -0.1,0.06 -198.96,-293.65 -573.28,-497.14 -978.59,-525.57 h -0.04 l -0.06,-0.05" /><path
         id="path90"
         style="fill:#f46f26;fill-opacity:1;fill-rule:nonzero;stroke:none"
         d="m 3263.36,2275.92 c 11.93,0 23.13,2.97 32.99,8.2 2.5,5.45 4.39,11.09 5.51,16.7 3.45,17.64 -0.16,35.55 -10.16,50.47 -10.02,14.89 -25.24,24.99 -42.83,28.48 -28.05,5.52 -48.82,-4.63 -49.67,-5.04 -0.1,-0.06 -0.25,-0.1 -0.35,-0.18 -3.79,-8.62 -5.92,-18.14 -5.92,-28.22 0,-38.89 31.54,-70.41 70.43,-70.41" /><path
         id="path92"
         style="fill:#f46f26;fill-opacity:1;fill-rule:nonzero;stroke:none"
         d="m 1499.73,2761.39 c 0,-30.56 24.76,-55.32 55.32,-55.32 9.89,0 19.17,2.63 27.22,7.19 3.93,12.18 6.91,25.86 6.91,42.01 0,28.58 -23.24,51.82 -51.8,51.82 -6.26,0 -12.26,-1.25 -17.85,-3.33 -12.09,-10.15 -19.8,-25.34 -19.8,-42.37" /><path
         id="path94"
         style="fill:#f46f26;fill-opacity:1;fill-rule:nonzero;stroke:none"
         d="m 2943.34,2802.17 c 22.52,0 40.77,18.25 40.77,40.77 0,22.54 -18.25,40.77 -40.77,40.77 -22.5,0 -40.76,-18.23 -40.76,-40.77 0,-22.52 18.26,-40.77 40.76,-40.77" /><path
         id="path96"
         style="fill:#f46f26;fill-opacity:1;fill-rule:nonzero;stroke:none"
         d="m 3149.61,2661.02 c 0,-31.43 25.48,-56.89 56.88,-56.89 6.32,0 12.4,1.08 18.08,2.98 8.71,8.08 15.18,18.66 17.81,32.13 3.48,17.62 -0.14,35.53 -10.17,50.45 -8.89,13.25 -21.94,22.65 -37.09,27.05 -25.96,-5.28 -45.51,-28.24 -45.51,-55.72" /><path
         id="path98"
         style="fill:#f46f26;fill-opacity:1;fill-rule:nonzero;stroke:none"
         d="m 1696.34,2538.06 c 0,-29.01 22.77,-52.59 51.39,-54.06 9.72,0.94 19.09,3.9 26.04,8.71 8.52,5.89 12.31,13.34 12.31,24.11 0,14.87 -0.02,55.21 -63.37,67.71 -15.78,-9.45 -26.37,-26.72 -26.37,-46.47" /><path
         id="path100"
         style="fill:#f46f26;fill-opacity:1;fill-rule:nonzero;stroke:none"
         d="m 1556.72,2282.09 c 0,-22.72 14.1,-42.07 34,-49.88 6.09,-2.42 12.71,-3.79 19.64,-3.79 16.89,0 31.93,7.83 41.75,20.04 6.57,8.12 10.78,18.25 11.66,29.28 -6.33,10.96 -21.04,20.52 -50.48,36.87 -8.68,4.84 -17.65,9.96 -26.67,15.49 -17.69,-8.78 -29.9,-26.94 -29.9,-48.01" /><path
         id="path102"
         style="fill:#f46f26;fill-opacity:1;fill-rule:nonzero;stroke:none"
         d="m 1256.56,2132.44 c 0,-29.61 24.01,-53.63 53.64,-53.63 0.93,0 1.84,0.1 2.77,0.14 20.41,11.56 34.28,33.45 34.28,58.53 0,19.36 -6.51,34.06 -10.69,41.62 -7.79,4.43 -16.77,6.97 -26.36,6.97 -29.63,0 -53.64,-24.02 -53.64,-53.63" /><path
         id="path104"
         style="fill:#f46f26;fill-opacity:1;fill-rule:nonzero;stroke:none"
         d="m 1430.04,2725.65 v 0 c -4.31,1.93 -8.22,4.64 -11.27,8.47 -167.86,211.25 -85.78,539.44 -85.78,539.44 -121.58,-260.67 -0.98,-535.38 97.05,-547.91" /><path
         id="path106"
         style="fill:#f46f26;fill-opacity:1;fill-rule:nonzero;stroke:none"
         d="m 3686.27,3184.12 c -75.99,-24.26 -144.75,64.59 -101.91,119.53 -25.65,21.18 -91.63,16.82 -91.63,16.82 l 41.06,-30.09 c 0,0 44.26,-158.19 152.48,-106.26" /><path
         id="path108"
         style="fill:#f46f26;fill-opacity:1;fill-rule:nonzero;stroke:none"
         d="m 3878.83,3418.7 c -0.1,0.14 -0.25,0.26 -0.35,0.39 0.22,-0.31 0.42,-0.64 0.61,-0.96 -0.1,0.16 -0.16,0.41 -0.26,0.57" /><path
         id="path110"
         style="fill:#f46f26;fill-opacity:1;fill-rule:nonzero;stroke:none"
         d="m 3641.05,3007.88 c 291.96,211.99 214.95,480.67 -78.59,466.85 -54.12,-22.53 -134.22,-110.39 -134.22,-110.39 0,0 118.21,75.75 161.25,74.45 196.37,-40.67 261.52,-169.29 51.56,-430.91" /><path
         id="path112"
         style="fill:#f46f26;fill-opacity:1;fill-rule:nonzero;stroke:none"
         d="m 2475.16,4723.11 v 0 0 z" /><path
         id="path114"
         style="fill:#f46f26;fill-opacity:1;fill-rule:nonzero;stroke:none"
         d="m 2182.83,4771.46 c 89.58,-192.05 74.26,-289.28 71.96,-300.88 l -6.21,-30.97 -31.58,-0.78 c -1.41,-0.04 -136.69,-5.28 -248.12,-101.57 268.02,-148.68 132.36,-411.5 132.36,-411.5 164.72,206.85 30.41,382.13 -47.86,424.06 157.28,43.45 249.32,35.55 249.32,35.55 0,0 42.26,146.14 -24.89,272.53 217.24,-86.89 280.36,-150.09 280.36,-150.09 0,0 78.49,76.56 71.17,181.7 209.31,-138.26 273.24,-221.56 273.24,-221.56 0,0 97.26,64.96 132.25,134.66 298.96,-310.7 65.82,-643.57 481.79,-1073.75 23.58,4.19 45.95,6.7 67.54,8.21 -242.46,251.79 -283.5,475.94 -319.87,675.86 -35.33,194.08 -63.81,350.59 -279.44,483.36 -7.43,-75.06 -42.56,-122.93 -44.48,-125.52 l -29.24,-39.06 -32.11,36.73 c -1.23,1.39 -116.51,130.47 -322.54,212.14 26.76,-103.45 14.73,-148.29 11.47,-157.53 l -18.48,-52.24 -43.37,34.52 c -1.69,1.35 -149.17,117.64 -323.27,166.13" /><path
         id="path116"
         style="fill:#f46f26;fill-opacity:1;fill-rule:nonzero;stroke:none"
         d="m 2104.31,3958.81 -3.07,-33.05 c 0,0 2.31,12.49 3.07,33.05" /><path
         id="path118"
         style="fill:#f8a7a6;fill-opacity:1;fill-rule:nonzero;stroke:none"
         d="m 3100.65,3409.8 c 19.29,-9.07 40.01,-7.43 57.4,-2.7 -1.86,9.62 -5.16,19.03 -10.3,28.32 -27.42,49.32 -84.02,50.27 -124.16,36.12 -43.36,-15.32 -83.13,-51.79 -103.45,-106.58 106.79,76.46 135.75,65.92 180.51,44.84" /><path
         id="path120"
         style="fill:#351914;fill-opacity:1;fill-rule:nonzero;stroke:none"
         d="m 2752.4,3779.13 c 66.94,36.03 134.87,133.01 172.48,257.9 31.9,105.89 34.51,207.1 12.76,276.35 64.1,-56.02 104.85,-138.11 104.85,-229.74 0,-163.17 -128.82,-296.49 -290.09,-304.51 z m -15.23,609.83 c 15.3,0 30.19,-1.47 44.89,-3.67 -17.9,-10.54 -35.85,-25.34 -53.17,-43.86 52.73,-17.47 91.01,-66.64 91.01,-125.23 0,-73.2 -59.3,-132.56 -132.52,-132.56 -29.24,0 -56.03,9.81 -77.97,25.86 -35.35,-132.4 -25.07,-254.59 21.72,-311.77 -116.17,43.25 -199.29,154.93 -199.29,285.91 0,168.37 136.97,305.32 305.33,305.32 z m 182.96,32.59 c -54.44,29.58 -116.75,46.4 -182.96,46.4 -154.6,0 -288.11,-91.83 -349.03,-223.7 -22.59,-48.94 -35.28,-103.29 -35.28,-160.61 0,-197.9 150.44,-361.31 342.96,-382.01 13.59,-1.44 27.38,-2.24 41.35,-2.24 157.4,0 292.91,95.11 352.26,230.86 20.57,47.03 32.05,98.89 32.05,153.39 0,145.75 -81.53,272.79 -201.35,337.91" /><path
         id="path122"
         style="fill:#351914;fill-opacity:1;fill-rule:nonzero;stroke:none"
         d="m 3584.36,3303.65 c -42.84,-54.94 25.92,-143.79 101.91,-119.53 126.33,40.28 -16.19,264.16 -193.54,136.35 0,0 65.98,4.36 91.63,-16.82" /><path
         id="path124"
         style="fill:#351914;fill-opacity:1;fill-rule:nonzero;stroke:none"
         d="m 1579.73,4185.37 c 0,0 20.06,-6.33 41.01,-19.09 14.46,-8.82 29.33,-20.69 38.3,-35.79 -62.2,-150.86 139.48,-331.74 274.09,-165.37 0,0 9.94,-1.14 24.21,-12.46 9.36,-7.45 20.59,-19.21 32.17,-38.03 61.04,193.91 -224.37,352.42 -409.78,270.74" /><path
         id="path126"
         style="fill:#351914;fill-opacity:1;fill-rule:nonzero;stroke:none"
         d="m 2997.87,2321.98 v -0.84 c 0.14,0.2 0.29,0.39 0.42,0.59 l -0.42,0.25" /><path
         id="path128"
         style="fill:#351914;fill-opacity:1;fill-rule:nonzero;stroke:none"
         d="m 3065.68,2164.24 c -73.73,0 -145.7,-3.12 -215.56,6.56 26.24,19 57.79,44.79 88.55,76.9 92.34,-6.04 176.97,-29.95 257.99,-73.44 2.32,-1.25 4.71,-2.2 7.09,-3.24 -46.33,-4.53 -92.44,-6.78 -138.07,-6.78 z m -44.58,1007.3 c -7,28.5 -7.84,71.9 -6.78,109.89 1.16,42.43 4.72,78.04 4.72,78.04 0,0 -24.68,-10.76 -46.25,-38.32 -0.06,-0.06 -0.11,-0.13 -0.17,-0.21 -2.2,-2.81 -4.33,-5.84 -6.45,-9.05 -14.72,-22.28 -26.4,-53.4 -24.78,-95.97 -10.61,6.23 -21.18,12.54 -31.6,18.95 -4.18,26.61 -4.67,51.14 -2.4,73.74 2.02,20.52 6.44,39.32 12.75,56.35 20.32,54.79 60.09,91.26 103.45,106.58 40.14,14.15 96.74,13.2 124.16,-36.12 5.14,-9.29 8.44,-18.7 10.3,-28.32 8.7,-45.22 -16.23,-95.15 -51.23,-157.33 -3.62,-6.43 -7.31,-13.05 -10.96,-19.72 -14.17,-25.95 -27.64,-53.51 -32.5,-79.91 -14.2,6.9 -28.28,14.09 -42.26,21.4 z m 24.05,-399.12 c 6.41,10.45 11.16,21.84 14.55,33.69 29.48,-4.57 57.58,-9.47 83.95,-15.02 -33.26,-12.69 -57.14,-40.78 -77.65,-65.08 -7.4,-8.76 -15.03,-17.79 -22.81,-25.91 -6.36,-6.61 -13.39,-8.12 -16.44,-5.71 -6.31,4.88 -10.38,31.26 18.4,78.03 z m -494.25,-61.83 c -6.12,-31.23 -0.12,-62.26 14.49,-88.38 -129.41,14.71 -280.02,16.36 -406.95,-23.78 -131.21,171.56 -214.96,381.04 -231.47,609.04 224.17,-260.39 573.89,-327.25 874.29,-367.16 -3.17,-10.29 -6.01,-20.98 -8.26,-32.46 -2.44,-12.4 -4.54,-21.84 -6.38,-29.02 -18.74,12.22 -45.21,27.65 -82.16,34.91 -70.73,13.88 -139.64,-32.36 -153.56,-103.15 z m -1.43,1860.22 18.48,52.24 c 3.26,9.24 15.29,54.08 -11.47,157.53 206.03,-81.67 321.31,-210.75 322.54,-212.14 l 32.11,-36.73 29.24,39.06 c 1.92,2.59 37.05,50.46 44.48,125.52 215.63,-132.77 244.11,-289.28 279.44,-483.36 36.37,-199.92 77.41,-424.07 319.87,-675.86 -21.59,-1.51 -43.96,-4.02 -67.54,-8.21 -70.2,-49.61 -88.38,-164.52 -88.38,-164.52 0,0 80.1,87.86 134.22,110.39 293.54,13.82 370.55,-254.86 78.59,-466.85 -46.93,0 -93.26,2.96 -138.9,8.45 -128.01,15.35 -250.8,51.05 -366.95,100.78 0,0 26.09,68.39 40.45,93.91 18.1,32.14 39.19,69.69 51.86,110.11 15.14,48.31 18.17,100.63 -10.7,152.63 -21.45,38.57 -55.32,64.89 -95.33,77.09 v 0 c -37.63,11.48 -80.68,10.53 -124.16,-4.82 -52.91,-18.67 -102.24,-58.1 -134.12,-115.46 -21.77,-39.15 -35.45,-86.59 -36.24,-141.82 -168.23,115.37 -315.2,252.04 -434.61,381.74 9.27,-30.52 31.32,-71.94 64.74,-119.62 v -0.02 c 105.64,-150.77 326.15,-364.9 625.96,-500.64 l 0.44,-0.41 c 0,0 -0.05,0.18 -0.05,0.24 134.57,-60.86 284.96,-105.96 448.18,-122.33 4.75,-0.48 9.51,-1.01 14.32,-1.43 -48.34,-35.73 -122.39,-81.3 -222.56,-116.86 -79.26,34.35 -168.01,55.71 -262.87,72.92 -1.55,5.51 -3.39,10.9 -5.69,16.11 -14.57,33.26 -42.4,55.47 -78.43,62.55 -54.92,10.84 -101.33,-5.24 -134.73,-43.89 -366.37,56.27 -781.85,140.48 -1099.24,652.07 12.49,-46.95 27.54,-90.44 44.49,-131.31 0.63,-1.8 1.15,-3.35 1.91,-5.35 26.14,-69.31 55.89,-142.14 55.89,-142.14 0,-289.52 101.55,-555.65 270.6,-765.15 -17.69,-142.35 -16.84,-264.61 -6.24,-367.65 29.09,-282.44 132.22,-418.83 132.22,-418.83 0,0 -2.38,10.86 -6.15,30.18 -21.66,110.78 -89.88,501.97 -27.09,748.59 192.11,65.94 654.46,45.66 654.46,45.66 0,0 -43.41,13.29 -111.88,28.19 -30.67,6.65 -66.37,13.64 -105.47,19.88 -20.03,17.5 -34.02,61.45 -29.65,83.65 5.51,28.07 45.68,46.91 73.73,41.32 26.97,-5.29 45.29,-17.53 61.44,-28.33 18.49,-12.36 41.53,-27.81 69.2,-16.27 31.14,12.9 40.62,50.03 50.62,100.97 20.61,104.69 71.49,94.61 90.67,90.91 10.59,-2.1 17.15,-7.24 21.29,-16.72 6.64,-15.14 4.65,-37.93 -4.63,-52.98 -55.76,-90.68 -36.27,-153.42 0.58,-181.88 36.21,-27.96 87.43,-22.32 121.78,13.47 9.53,9.92 17.97,19.93 26.14,29.65 31.66,37.44 42.91,46.97 63.04,43.12 1.96,-0.37 3.85,-0.91 5.75,-1.42 15.15,-4.4 28.2,-13.8 37.09,-27.05 10.03,-14.92 13.65,-32.83 10.17,-50.45 -2.63,-13.47 -9.1,-24.05 -17.81,-32.13 -16.86,-15.59 -42.32,-21.72 -66.12,-20.23 -58.78,4 -107.34,-22.18 -129.87,-69.79 -20.18,-42.64 -13.46,-92.95 16.74,-125.2 16.1,-17.16 62.86,-53.4 150.26,-18.82 0.9,0.37 2.28,1.01 3.27,1.48 0.1,0.08 0.25,0.12 0.35,0.18 0.85,0.41 21.62,10.56 49.67,5.04 17.59,-3.49 32.81,-13.59 42.83,-28.48 10,-14.92 13.61,-32.83 10.16,-50.47 -1.12,-5.61 -3.01,-11.25 -5.51,-16.7 -7.78,-16.99 -21.52,-32.25 -36.51,-39.34 -14.62,-6.85 -23.05,-2.36 -25.83,-0.9 -22.32,11.99 -45.19,22.54 -68.42,31.96 -53.79,21.84 -109.87,36.99 -167.85,45.14 0.04,0.06 0.09,0.09 0.11,0.12 l -4.85,0.49 c -16.52,2.22 -33.18,3.86 -49.98,4.99 l -36.55,3.62 c -67.29,-82.19 -153.66,-128.11 -154.59,-128.6 -9.69,-5.02 -16.88,-13.85 -19.82,-24.32 -2.96,-10.53 -1.43,-21.78 4.21,-31.13 1.64,-2.67 150.08,-242.54 442.83,-242.54 26.82,0 54.89,2.13 84.14,6.53 6.97,1.03 13.95,2.1 21.06,3.43 0,0 -35.55,2.91 -88.99,16.14 -80.51,19.98 -201.74,63.45 -303.9,156.25 57.52,-5.73 119.68,-7.18 174.27,-7.18 32.64,0 65.12,1.24 97.43,3.52 h 0.02 c 405.31,28.43 779.63,231.92 978.59,525.57 0.04,0 0.06,0 0.1,-0.06 -9.57,-19.27 -20.06,-37.88 -31.05,-56.05 -31.24,-58.49 -71.31,-133.48 -122.76,-229.78 -233.03,-436.14 -418.66,-397.21 -635.88,-650.03 -217.25,-252.78 -367.34,-43.4 -614.96,-173.77 -247.61,-130.31 -455.41,31.61 -668.68,114.56 -166.3,64.66 -782.03,-27.67 -880.78,378.51 -3.6,14.79 -7.44,29.16 -11.4,43.26 26.52,-26.68 63.19,-43.26 103.71,-43.26 80.61,0 146.2,65.62 146.2,146.23 0,50.63 -22.95,85.29 -30.2,94.99 -16.33,25.99 -20.82,48.66 -12.02,60.89 6.82,9.49 22,13.71 36.14,10.16 18.96,-4.79 31.23,-21.7 34.55,-47.48 10.66,-83.14 70.66,-141.22 145.9,-141.22 80.62,0 146.22,65.63 146.22,146.26 0,69.66 -52.74,99.01 -95.11,122.56 -9.99,5.55 -20.33,11.32 -29.79,17.38 -7.71,4.94 -10.5,11.56 -8.76,15.06 3.57,7.08 28.68,16.18 80.11,-2.99 41.19,-15.45 90.47,-9.61 125.54,14.69 15.77,10.96 27.66,25.01 35.49,41.18 7.02,14.45 10.79,30.58 10.79,47.86 0,62.93 -31.08,108.78 -86.21,132.37 -27.46,11.75 -60.78,18.08 -99.42,18.08 -12.64,0 -22.32,0.27 -29.71,0.66 8.39,20.74 18.44,49.73 18.44,87.34 0,72.13 -58.69,130.79 -130.8,130.79 -39.87,0 -76.01,-18.31 -100.16,-47.13 -0.3,-0.34 -0.63,-0.67 -0.92,-1 -26.51,28.55 -47.02,89.32 -62.53,156.64 128.38,140.67 217.65,367.59 242.45,435.15 4.6,12.53 6.98,19.58 6.98,19.58 0,0 -141.89,-231.47 -266.18,-369.45 -17.06,101.31 -24.03,193.71 -24.03,193.71 0,0 -82.08,-328.19 85.78,-539.44 3.05,-3.83 6.96,-6.54 11.27,-8.47 9.22,-4.07 20.48,-4.01 30.29,-0.31 14.37,5.39 24.3,18.64 25.47,33.99 1.58,20.53 15.31,37.56 33.73,44.43 5.59,2.08 11.59,3.33 17.85,3.33 28.56,0 51.8,-23.24 51.8,-51.82 0,-16.15 -2.98,-29.83 -6.91,-42.01 -2.76,-8.5 -5.98,-16.35 -9.07,-23.71 -8.58,-20.53 -19.25,-46.08 -2.65,-71.01 18.7,-28.09 56.93,-30.25 108.9,-30.25 16.99,0 31.26,-1.37 43.26,-3.76 63.35,-12.5 63.37,-52.84 63.37,-67.71 0,-10.77 -3.79,-18.22 -12.31,-24.11 -6.95,-4.81 -16.32,-7.77 -26.04,-8.71 -9.22,-0.9 -18.75,0.04 -26.81,3.04 -99.73,37.28 -157.57,6.04 -178.39,-35.61 -20.49,-40.91 -5.05,-90.07 36.71,-116.88 2.48,-1.59 4.93,-2.95 7.38,-4.45 9.02,-5.53 17.99,-10.65 26.67,-15.49 29.44,-16.35 44.15,-25.91 50.48,-36.87 2.89,-4.99 4.04,-10.28 4.04,-16.66 0,-37.1 -30.17,-67.24 -67.22,-67.24 -40.26,0 -62.93,36.28 -67.55,72.26 -0.87,6.71 -2.14,13.2 -3.7,19.49 -3.23,12.85 -7.91,24.71 -13.89,35.48 -0.02,0.03 -0.04,0.03 -0.04,0.07 -16.46,29.58 -42.75,50.53 -75.86,58.94 -45.7,11.52 -93.81,-4.71 -119.65,-40.55 -13.75,-19.08 -40.23,-72.03 10.49,-151.04 0.82,-1.3 1.74,-2.55 2.72,-3.74 0.03,-0.04 1.53,-2.13 3.45,-5.65 4.18,-7.56 10.69,-22.26 10.69,-41.62 0,-25.08 -13.87,-46.97 -34.28,-58.53 -9.76,-5.49 -20.99,-8.68 -32.95,-8.68 -3.03,0 -5.98,0.28 -8.89,0.65 -32.87,4.39 -58.35,32.54 -58.35,66.56 0,37.93 5.01,81.31 10.33,127.23 23.2,200.57 54.84,473.79 -252.407,790.66 5.692,13.19 12.149,27.46 18.34,43.07 147.987,372.36 472.937,624.46 556.657,684.85 12.82,9.27 20.04,14.05 20.04,14.05 -3.55,-0.95 -7.14,-2.1 -10.72,-3.15 0,0 0,0 -0.01,0 -230.36,-68.06 -497.64,-309.3 -667.276,-731.19 -6.152,-15.31 -3.554,-32.7 8.164,-44.3 300.432,-298.08 271.782,-545.87 248.752,-744.93 -4.68,-40.32 -8.93,-78.67 -10.26,-114.98 -112.94,284.93 -284.187,420.08 -249.878,611.2 40.41,225.11 -127.305,505.54 22.773,671.43 150.085,165.87 110.585,367.31 280.425,457.33 169.83,90.03 157.99,44.26 272.52,237.83 67.59,114.14 129.69,151.34 221.16,163.44 46.4,6.13 100.43,5.84 166.5,5.88 l 38.38,-16.25 c 158.4,-67.05 203.8,-185.88 214.97,-269.47 3.24,-24.07 3.66,-45.26 3.07,-61.37 -0.76,-20.56 -3.07,-33.05 -3.07,-33.05 0,0 135.66,262.82 -132.36,411.5 111.43,96.29 246.71,101.53 248.12,101.57 l 31.58,0.78 6.21,30.97 c 2.3,11.6 17.62,108.83 -71.96,300.88 174.1,-48.49 321.58,-164.78 323.27,-166.13 z m 765.84,-2384.27 c 32.04,23.07 56.31,59.65 64.05,99.1 15.55,79.11 -36.18,156.1 -115.29,171.63 -49.69,9.72 -88.14,-6.1 -99.03,-11.31 -28.61,-11.02 -51.74,-11.08 -62.06,-0.06 -7.96,8.5 -9.23,24.24 -2.98,37.37 8.36,17.71 27.32,26.51 53.23,24.8 83.68,-5.61 152.19,42.14 166.66,115.95 7.52,38.32 -0.32,77.31 -22.1,109.69 -2.26,3.43 -4.74,6.64 -7.28,9.82 9.34,-4.99 18.05,-10.23 26.1,-15.87 0,0 209.76,65.95 349.47,193.01 230.21,159.48 291.19,368.04 213.01,497.46 -0.19,0.32 -0.39,0.65 -0.61,0.96 -33.75,55.26 -92.84,95.99 -175.3,111.98 -281.73,260.32 -324,491.62 -361.18,696.05 -38.87,213.56 -75.57,415.31 -380.57,572.98 l -70.16,36.26 13.05,-77.87 c 6.62,-39.57 1.01,-72.93 -6.8,-97.2 -62.58,57.25 -195.37,160.72 -390.25,220.17 l -74.83,22.8 26.04,-73.72 c 17.75,-50.33 27.01,-88.75 31.66,-117.09 -4.78,3.13 -9.78,6.34 -14.98,9.66 v 0 c -81.43,51.65 -215.5,123.11 -359.18,142.94 l -77.41,10.69 37.27,-68.66 c 19.8,-36.44 35.71,-69.66 48.65,-99.87 -221.25,83.34 -462.44,83.4 -462.44,83.4 0,0 62.39,-129.74 73,-175.63 -203.72,57.71 -411.93,6.25 -411.93,6.25 0,0 90.51,-119.08 114.91,-163.41 -259.52,41.06 -400.86,-66.74 -400.86,-66.74 0,0 80.78,-34.38 122.06,-86.06 -162.406,-29.96 -285.109,-125.3 -285.109,-125.3 l 102.715,-90.99 -213.273,-128.57 -5.067,-8.6 c -170.41,-289.64 -260.449,-621.31 -260.43,-959.14 0,-1044.49 849.774,-1894.32 1894.284,-1894.32 1044.53,0 1894.29,849.83 1894.29,1894.32 -181.52,-488.27 -573.23,-735.67 -971.33,-806.88" /><g
         transform="scale(10)"
         id="g130"><text
           id="text134"
           style="font-variant:normal;font-weight:900;font-size:220.38200378px;font-family:Montserrat;-inkscape-font-specification:Montserrat-Black;writing-mode:lr-tb;fill:#f2521c;fill-opacity:1;fill-rule:nonzero;stroke:none"
           transform="matrix(1,0,0,-1,491.015,213.027)"><tspan
             id="tspan132"
             y="0"
             x="0 151.62282 224.78964 353.49274 426.6488 585.10602 726.36902 889.67102">CILIATUS</tspan></text>
</g></g></g></svg>